<svg xmlns="http://www.w3.org/2000/svg" xmlns:xlink="http://www.w3.org/1999/xlink" width="18" height="18" viewBox="0 0 18 18">
  <defs>
    <clipPath id="clip-path">
      <rect id="Rectangle_41" data-name="Rectangle 41" width="18" height="18" transform="translate(0 0)" fill="#41ae28"/>
    </clipPath>
  </defs>
  <g id="Mask_Group_12" data-name="Mask Group 12" transform="translate(0 0)" clip-path="url(#clip-path)">
    <path id="Subtraction_1" data-name="Subtraction 1" d="M14,16H2a2,2,0,0,1-2-2V2A2,2,0,0,1,2,0H14a2,2,0,0,1,1.5.683L10.8,5.378,8.658,3.231a.617.617,0,1,0-.872.872L10.372,6.69a.616.616,0,0,0,.872,0L16,1.934c0,.017,0,.034,0,.051V14A2,2,0,0,1,14,16ZM2.961,11.178l-1.446.141a2.82,2.82,0,0,0,.894,1.88,3.2,3.2,0,0,0,2.145.645,4.19,4.19,0,0,0,1.6-.268,2.115,2.115,0,0,0,.995-.821A2.315,2.315,0,0,0,7.207,10.4a2.081,2.081,0,0,0-.814-.749,7.24,7.24,0,0,0-1.6-.53,3.917,3.917,0,0,1-1.366-.492A.567.567,0,0,1,3.2,8.18a.537.537,0,0,1,.236-.457,1.708,1.708,0,0,1,1.014-.266,1.509,1.509,0,0,1,.942.248,1.27,1.27,0,0,1,.409.816L7.29,8.456a2.154,2.154,0,0,0-.735-1.623,3.123,3.123,0,0,0-2.087-.608,3.7,3.7,0,0,0-1.449.257,2,2,0,0,0-.919.745A1.9,1.9,0,0,0,1.781,8.28a1.927,1.927,0,0,0,.678,1.482,4.063,4.063,0,0,0,1.678.728c.617.153,1.018.262,1.19.321a1.229,1.229,0,0,1,.536.319.676.676,0,0,1,.153.445.908.908,0,0,1-.365.711,1.664,1.664,0,0,1-1.082.3,1.607,1.607,0,0,1-1.077-.341A1.773,1.773,0,0,1,2.961,11.178ZM10.776,8.26a2.3,2.3,0,0,0-1.753.751,2.963,2.963,0,0,0-.693,2.077,3.069,3.069,0,0,0,.527,1.838,2.4,2.4,0,0,0,2.059.909,2.527,2.527,0,0,0,1.464-.4,2.317,2.317,0,0,0,.856-1.178l-1.406-.236a1.124,1.124,0,0,1-.342.583.87.87,0,0,1-.557.18,1.074,1.074,0,0,1-.814-.348,1.44,1.44,0,0,1-.342-.977h3.536a3.5,3.5,0,0,0-.658-2.408A2.379,2.379,0,0,0,10.776,8.26Zm1.135,2.33H9.8a1.307,1.307,0,0,1,.3-.914,1.019,1.019,0,0,1,1.5-.018,1.363,1.363,0,0,1,.316.93Z" transform="translate(1 0.999)" fill="#41ae28"/>
  </g>
</svg>
