<svg xmlns="http://www.w3.org/2000/svg" xmlns:xlink="http://www.w3.org/1999/xlink" width="18" height="18" viewBox="0 0 18 18">
  <defs>
    <clipPath id="clip-path">
      <rect id="Rectangle_233" data-name="Rectangle 233" width="18" height="18" fill="#c99149" stroke="#0381e3" stroke-width="1"/>
    </clipPath>
    <linearGradient id="linear-gradient" x1="0.648" y1="-0.069" x2="0" y2="0.5" gradientUnits="objectBoundingBox">
      <stop offset="0" stop-color="#a75927"/>
      <stop offset="1" stop-color="#ec9834"/>
    </linearGradient>
    <linearGradient id="linear-gradient-2" x1="0.648" y1="-0.069" x2="0" y2="0.5" gradientUnits="objectBoundingBox">
      <stop offset="0" stop-color="#31a3ea"/>
      <stop offset="1" stop-color="#235a9a"/>
    </linearGradient>
  </defs>
  <g id="Mask_Group_92" data-name="Mask Group 92" clip-path="url(#clip-path)">
    <g id="art-deco" transform="translate(0 1.2)">
      <path id="Path_160" data-name="Path 160" d="M16,5.04a.456.456,0,0,0-.594-.318,14.639,14.639,0,0,1-4.537.612c-.447,0-.879-.017-1.3-.044a9.812,9.812,0,0,1-1,2.663c.021,0,.042,0,.064,0,.572,0,1.035-.048,1.035.338A1.2,1.2,0,0,1,8.637,9.344a1.254,1.254,0,0,1-.816-.272,6.064,6.064,0,0,1-1.975,1.639c.829,2.791,2.767,4.748,5.026,4.748,3.013,0,5.456-3.484,5.456-7.781A10.729,10.729,0,0,0,16,5.04Zm-2.957,8.147a.122.122,0,0,1-.2.065,3.155,3.155,0,0,0-1.977-.594,3.155,3.155,0,0,0-1.978.594.122.122,0,0,1-.2-.065,2.022,2.022,0,0,1-.057-.465,2.231,2.231,0,1,1,4.462,0A2.028,2.028,0,0,1,13.048,13.187Zm.062-3.843a1.2,1.2,0,0,1-1.035-1.058c0-.385.464-.338,1.035-.338s1.035.312,1.035.7S13.681,9.344,13.109,9.344Z" transform="translate(1.671 0.142)" fill="url(#linear-gradient)"/>
      <path id="Path_161" data-name="Path 161" d="M10.912,3.915a10.727,10.727,0,0,0-.325-2.638A.457.457,0,0,0,9.993.959a14.639,14.639,0,0,1-4.537.612A14.639,14.639,0,0,1,.919.959.45.45,0,0,0,.768.933a.457.457,0,0,0-.443.344A10.727,10.727,0,0,0,0,3.915C0,8.212,2.443,11.7,5.456,11.7S10.912,8.212,10.912,3.915Zm-8.728.967c0-.385.464-.7,1.035-.7A1.2,1.2,0,0,1,4.256,5.242c0,.385-.464.338-1.035.338S2.185,5.267,2.185,4.882Zm3.271,5.343A2.231,2.231,0,0,1,3.225,7.994a2.025,2.025,0,0,1,.057-.465.122.122,0,0,1,.2-.065,3.155,3.155,0,0,0,1.978.594,3.155,3.155,0,0,0,1.977-.594.122.122,0,0,1,.2.065,2.025,2.025,0,0,1,.057.465A2.231,2.231,0,0,1,5.456,10.225Zm1.2-4.983A1.2,1.2,0,0,1,7.692,4.184c.572,0,1.035.312,1.035.7s-.464.7-1.035.7S6.657,5.627,6.657,5.242Z" transform="translate(0 -0.933)" fill="url(#linear-gradient-2)"/>
    </g>
  </g>
</svg>
