<svg xmlns="http://www.w3.org/2000/svg" xmlns:xlink="http://www.w3.org/1999/xlink" width="32" height="32" viewBox="0 0 32 32">
  <defs>
    <clipPath id="clip-path">
      <rect id="Rectangle_233" data-name="Rectangle 233" width="32" height="32" transform="translate(0 0)" fill="#c99149" stroke="#0381e3" stroke-width="1"/>
    </clipPath>
    <linearGradient id="linear-gradient" x1="0.648" y1="-0.069" x2="0" y2="0.5" gradientUnits="objectBoundingBox">
      <stop offset="0" stop-color="#a75927"/>
      <stop offset="1" stop-color="#ec9834"/>
    </linearGradient>
    <linearGradient id="linear-gradient-2" x1="0.648" y1="-0.069" x2="0" y2="0.5" gradientUnits="objectBoundingBox">
      <stop offset="0" stop-color="#31a3ea"/>
      <stop offset="1" stop-color="#235a9a"/>
    </linearGradient>
  </defs>
  <g id="Mask_Group_92" data-name="Mask Group 92" transform="translate(0 0)" clip-path="url(#clip-path)">
    <g id="art-deco" transform="translate(0 2.133)">
      <path id="Path_160" data-name="Path 160" d="M23.9,5.308a.811.811,0,0,0-1.056-.566A26.025,26.025,0,0,1,14.782,5.83c-.8,0-1.562-.03-2.305-.078a17.443,17.443,0,0,1-1.783,4.735c.038,0,.075-.008.113-.008,1.017,0,1.841-.085,1.841.6a2.134,2.134,0,0,1-1.841,1.88,2.228,2.228,0,0,1-1.45-.484,10.78,10.78,0,0,1-3.51,2.914c1.474,4.961,4.92,8.441,8.935,8.441,5.357,0,9.7-6.193,9.7-13.833A19.074,19.074,0,0,0,23.9,5.308ZM18.648,19.791a.217.217,0,0,1-.35.116,5.609,5.609,0,0,0-3.516-1.057,5.609,5.609,0,0,0-3.516,1.057.217.217,0,0,1-.35-.116,3.6,3.6,0,0,1-.1-.826,3.967,3.967,0,1,1,7.933,0A3.606,3.606,0,0,1,18.648,19.791Zm.109-6.832a2.134,2.134,0,0,1-1.841-1.88c0-.685.824-.6,1.841-.6s1.841.555,1.841,1.24S19.774,12.959,18.757,12.959Z" transform="translate(7.518 3.904)" fill="url(#linear-gradient)"/>
      <path id="Path_161" data-name="Path 161" d="M19.4,6.234a19.07,19.07,0,0,0-.578-4.689A.812.812,0,0,0,17.766.979,26.025,26.025,0,0,1,9.7,2.067,26.025,26.025,0,0,1,1.634.979.8.8,0,0,0,1.366.933a.812.812,0,0,0-.788.612A19.07,19.07,0,0,0,0,6.234c0,7.64,4.343,13.833,9.7,13.833S19.4,13.874,19.4,6.234ZM3.884,7.953c0-.685.824-1.24,1.841-1.24a2.134,2.134,0,0,1,1.841,1.88c0,.685-.824.6-1.841.6S3.884,8.638,3.884,7.953Zm5.816,9.5a3.967,3.967,0,0,1-3.967-3.967,3.6,3.6,0,0,1,.1-.826.217.217,0,0,1,.35-.116A5.609,5.609,0,0,0,9.7,13.6a5.609,5.609,0,0,0,3.516-1.057.217.217,0,0,1,.35.116,3.6,3.6,0,0,1,.1.826A3.967,3.967,0,0,1,9.7,17.452Zm2.134-8.859a2.134,2.134,0,0,1,1.841-1.88c1.017,0,1.841.555,1.841,1.24s-.824,1.24-1.841,1.24S11.834,9.278,11.834,8.593Z" transform="translate(0 -0.933)" fill="url(#linear-gradient-2)"/>
    </g>
  </g>
</svg>
