<svg xmlns="http://www.w3.org/2000/svg" xmlns:xlink="http://www.w3.org/1999/xlink" width="32" height="32" viewBox="0 0 32 32">
  <defs>
    <clipPath id="clip-path">
      <rect id="Rectangle_41" data-name="Rectangle 41" width="32" height="32" transform="translate(0 0.327)" fill="#41ae28"/>
    </clipPath>
  </defs>
  <g id="Mask_Group_12" data-name="Mask Group 12" transform="translate(0 -0.327)" clip-path="url(#clip-path)">
    <path id="Subtraction_1" data-name="Subtraction 1" d="M24,28H4a4,4,0,0,1-4-4V4A4,4,0,0,1,4,0H24a4,4,0,0,1,2.987,1.34L18.908,9.411,15.152,5.655a1.079,1.079,0,0,0-1.526,1.526l4.525,4.525a1.078,1.078,0,0,0,1.526,0l8.282-8.282A4.053,4.053,0,0,1,28,4V24A4,4,0,0,1,24,28ZM5.181,19.562h0l-2.531.246A4.933,4.933,0,0,0,4.215,23.1a5.605,5.605,0,0,0,3.753,1.129,7.335,7.335,0,0,0,2.8-.47,3.709,3.709,0,0,0,1.741-1.437,4.059,4.059,0,0,0,.1-4.126,3.638,3.638,0,0,0-1.424-1.309,12.679,12.679,0,0,0-2.808-.927A6.87,6.87,0,0,1,5.99,15.1a.994.994,0,0,1-.387-.783.941.941,0,0,1,.413-.8,2.986,2.986,0,0,1,1.776-.466,2.631,2.631,0,0,1,1.648.436,2.219,2.219,0,0,1,.716,1.427l2.6-.113a3.769,3.769,0,0,0-1.287-2.839A5.466,5.466,0,0,0,7.818,10.9a6.476,6.476,0,0,0-2.535.448A3.506,3.506,0,0,0,3.675,12.65a3.325,3.325,0,0,0-.559,1.841A3.368,3.368,0,0,0,4.3,17.084a7.121,7.121,0,0,0,2.936,1.274c1.1.272,1.777.456,2.083.563a2.144,2.144,0,0,1,.936.558,1.174,1.174,0,0,1,.268.778A1.589,1.589,0,0,1,9.888,21.5a2.911,2.911,0,0,1-1.894.532,2.816,2.816,0,0,1-1.885-.6,3.106,3.106,0,0,1-.928-1.872Zm13.676-5.107A4.012,4.012,0,0,0,15.79,15.77,5.177,5.177,0,0,0,14.577,19.4a5.371,5.371,0,0,0,.923,3.217,4.2,4.2,0,0,0,3.6,1.591,4.425,4.425,0,0,0,2.562-.708,4.058,4.058,0,0,0,1.5-2.061L20.7,21.029a1.956,1.956,0,0,1-.6,1.02,1.516,1.516,0,0,1-.976.317,1.878,1.878,0,0,1-1.424-.611,2.511,2.511,0,0,1-.6-1.709H23.3a6.115,6.115,0,0,0-1.151-4.215A4.16,4.16,0,0,0,18.858,14.456Zm1.986,4.078H17.152a2.292,2.292,0,0,1,.518-1.6,1.723,1.723,0,0,1,1.337-.59,1.7,1.7,0,0,1,1.282.558,2.391,2.391,0,0,1,.554,1.63Z" transform="translate(2 2.327)" fill="#41ae28"/>
  </g>
</svg>
