<svg xmlns="http://www.w3.org/2000/svg" xmlns:xlink="http://www.w3.org/1999/xlink" width="32" height="32" viewBox="0 0 32 32">
  <defs>
    <clipPath id="clip-path">
      <rect id="Rectangle_232" data-name="Rectangle 232" width="32" height="32" transform="translate(-0.266)" fill="#fff" stroke="#707070" stroke-width="1"/>
    </clipPath>
  </defs>
  <g id="Mask_Group_91" data-name="Mask Group 91" transform="translate(0.266)" clip-path="url(#clip-path)">
    <g id="google-color" transform="translate(1.733 1.614)">
      <g id="Group_134" data-name="Group 134" transform="translate(0 0)">
        <g id="Group_133" data-name="Group 133">
          <path id="Path_156" data-name="Path 156" d="M5.957,10.431A8.508,8.508,0,0,1,6.389,7.76l-4.848-3.7a14.484,14.484,0,0,0,0,12.741l4.846-3.71a8.511,8.511,0,0,1-.428-2.659" transform="translate(-0.064 3.955)" fill="#fbbc05" fill-rule="evenodd"/>
          <path id="Path_157" data-name="Path 157" d="M13.712,6.044a8.336,8.336,0,0,1,5.3,1.9l4.191-4.185A14.4,14.4,0,0,0,.783,8.172l4.848,3.7a8.49,8.49,0,0,1,8.081-5.83" transform="translate(0.695 -0.159)" fill="#eb4335" fill-rule="evenodd"/>
          <path id="Path_158" data-name="Path 158" d="M13.712,14.289a8.49,8.49,0,0,1-8.081-5.83L.783,12.16a14.363,14.363,0,0,0,12.929,8.014A13.729,13.729,0,0,0,23.1,16.589l-4.6-3.558a8.911,8.911,0,0,1-4.784,1.258" transform="translate(0.695 8.598)" fill="#34a853" fill-rule="evenodd"/>
          <path id="Path_159" data-name="Path 159" d="M20.825,8.5A11.921,11.921,0,0,0,20.5,5.886H7.074v5.558H14.8a6.479,6.479,0,0,1-2.943,4.3l4.6,3.558A14.308,14.308,0,0,0,20.825,8.5" transform="translate(7.333 5.884)" fill="#4285f4" fill-rule="evenodd"/>
        </g>
      </g>
    </g>
  </g>
</svg>
