<svg xmlns="http://www.w3.org/2000/svg" xmlns:xlink="http://www.w3.org/1999/xlink" width="32" height="32" viewBox="0 0 32 32">
  <defs>
    <clipPath id="clip-path">
      <rect id="Rectangle_230" data-name="Rectangle 230" width="32" height="32" transform="translate(-0.266)" fill="#fff" stroke="#707070" stroke-width="1"/>
    </clipPath>
  </defs>
  <g id="Mask_Group_89" data-name="Mask Group 89" transform="translate(0.266)" clip-path="url(#clip-path)">
    <g id="amazon-color" transform="translate(-0.189 -0.001)">
      <g id="Group_132" data-name="Group 132" transform="translate(0)">
        <g id="Group_131" data-name="Group 131">
          <path id="Path_152" data-name="Path 152" d="M13.726,17.307a3.423,3.423,0,0,1-2.262,1.839c-.139,0-.352.07-.565.07-1.552,0-2.47-1.2-2.47-2.967a3.719,3.719,0,0,1,3.035-3.818,13.953,13.953,0,0,1,3.039-.282V13c0,1.625.07,2.9-.777,4.309ZM14.5,8.9c-.918.07-1.979.139-3.039.279a15.663,15.663,0,0,0-4.587,1.133A6.79,6.79,0,0,0,2.5,16.954c0,4.172,2.683,6.289,6.076,6.289a11.7,11.7,0,0,0,2.892-.352,8.813,8.813,0,0,0,3.814-2.617,11.1,11.1,0,0,0,2.331,2.686.992.992,0,0,0,.988-.07c.849-.708,2.333-1.98,3.108-2.686a.763.763,0,0,0,.07-1.058A5.288,5.288,0,0,1,20.221,15.4V9.041c0-2.684.214-5.158-1.763-6.993A9.5,9.5,0,0,0,12.313,0h-.849C7.865.209,4.053,1.764,3.2,6.216a.663.663,0,0,0,.566.847l3.955.5a.9.9,0,0,0,.706-.776,3.229,3.229,0,0,1,3.035-2.475h.284a2.773,2.773,0,0,1,2.26,1.062A5.311,5.311,0,0,1,14.5,8.337V8.9Z" transform="translate(3.21)" fill="#343b45" fill-rule="evenodd"/>
          <path id="Path_153" data-name="Path 153" d="M32,11.261v0a1.521,1.521,0,0,0-.224-.8l-.015-.021-.017-.021a1.093,1.093,0,0,0-.423-.277,5.41,5.41,0,0,0-1.844-.262,8.363,8.363,0,0,0-1.771.186l0-.041-.615.205-.011.006-.348.113v.015A5.448,5.448,0,0,0,25.6,11a.878.878,0,0,0-.4.7.652.652,0,0,0,.233.5.746.746,0,0,0,.474.162.555.555,0,0,0,.1-.007l.03,0,.023,0c.3-.064.74-.107,1.253-.179a12.374,12.374,0,0,1,1.311-.085,3.6,3.6,0,0,1,.721.056.806.806,0,0,1,.19.06.1.1,0,0,1,.028.013.637.637,0,0,1,.017.177,6.139,6.139,0,0,1-.337,1.581c-.192.614-.425,1.229-.58,1.638a.83.83,0,0,0-.062.311.677.677,0,0,0,.207.5.693.693,0,0,0,.47.184h.008a.947.947,0,0,0,.583-.222A7.226,7.226,0,0,0,32,11.462Zm-4.631,1.946a1.1,1.1,0,0,0-.476.107c-.171.068-.346.147-.512.216l-.243.1-.316.126v0a29.855,29.855,0,0,1-10.379,2.282c-.122,0-.246,0-.365,0-5.25,0-9.532-2.432-13.852-4.832a.988.988,0,0,0-.457-.12A.8.8,0,0,0,.23,11.3.739.739,0,0,0,0,11.84a.851.851,0,0,0,.337.659c4.055,3.522,8.5,6.794,14.477,6.8.117,0,.235,0,.354-.006a23.5,23.5,0,0,0,11.44-3.467l.021-.013a11.689,11.689,0,0,0,1.285-.889,1.025,1.025,0,0,0,.433-.8A.954.954,0,0,0,27.368,13.207Z" transform="translate(0 12.705)" fill="#ff9a00" fill-rule="evenodd"/>
        </g>
      </g>
    </g>
  </g>
</svg>
