<svg xmlns="http://www.w3.org/2000/svg" xmlns:xlink="http://www.w3.org/1999/xlink" width="18" height="18" viewBox="0 0 18 18">
  <defs>
    <clipPath id="clip-path">
      <rect id="Rectangle_232" data-name="Rectangle 232" width="18" height="18" fill="#fff" stroke="#707070" stroke-width="1"/>
    </clipPath>
  </defs>
  <g id="Mask_Group_91" data-name="Mask Group 91" clip-path="url(#clip-path)">
    <g id="google-color" transform="translate(1.081 0.908)">
      <g id="Group_134" data-name="Group 134" transform="translate(0 0)">
        <g id="Group_133" data-name="Group 133">
          <path id="Path_156" data-name="Path 156" d="M3.379,7.643a4.786,4.786,0,0,1,.243-1.5L.895,4.058a8.147,8.147,0,0,0,0,7.167L3.619,9.138a4.788,4.788,0,0,1-.241-1.5" transform="translate(-0.064 0.449)" fill="#fbbc05" fill-rule="evenodd"/>
          <path id="Path_157" data-name="Path 157" d="M8.055,3.469a4.689,4.689,0,0,1,2.984,1.067L13.4,2.182A8.1,8.1,0,0,0,.783,4.666L3.51,6.749a4.776,4.776,0,0,1,4.545-3.28" transform="translate(0.048 -0.159)" fill="#eb4335" fill-rule="evenodd"/>
          <path id="Path_158" data-name="Path 158" d="M8.055,11.738A4.776,4.776,0,0,1,3.51,8.459L.783,10.541a8.079,8.079,0,0,0,7.273,4.508,7.722,7.722,0,0,0,5.28-2.017l-2.589-2a5.012,5.012,0,0,1-2.691.708" transform="translate(0.048 1.136)" fill="#34a853" fill-rule="evenodd"/>
          <path id="Path_159" data-name="Path 159" d="M14.809,7.358a6.705,6.705,0,0,0-.184-1.471H7.074V9.013H11.42a3.644,3.644,0,0,1-1.655,2.419l2.589,2a8.048,8.048,0,0,0,2.455-6.075" transform="translate(1.03 0.734)" fill="#4285f4" fill-rule="evenodd"/>
        </g>
      </g>
    </g>
  </g>
</svg>
