<svg xmlns="http://www.w3.org/2000/svg" xmlns:xlink="http://www.w3.org/1999/xlink" width="18" height="18" viewBox="0 0 18 18">
  <defs>
    <clipPath id="clip-path">
      <rect id="Rectangle_230" data-name="Rectangle 230" width="18" height="18" transform="translate(0)" fill="#fff" stroke="#707070" stroke-width="1"/>
    </clipPath>
  </defs>
  <g id="Mask_Group_89" data-name="Mask Group 89" clip-path="url(#clip-path)">
    <g id="amazon-color" transform="translate(0)">
      <g id="Group_132" data-name="Group 132" transform="translate(0)">
        <g id="Group_131" data-name="Group 131">
          <path id="Path_152" data-name="Path 152" d="M8.813,9.735a1.926,1.926,0,0,1-1.272,1.034c-.078,0-.2.039-.318.039-.873,0-1.39-.676-1.39-1.669A2.092,2.092,0,0,1,7.541,6.992,7.848,7.848,0,0,1,9.25,6.834v.478a4.22,4.22,0,0,1-.437,2.424ZM9.25,5.007c-.516.039-1.113.078-1.709.157A8.81,8.81,0,0,0,4.96,5.8,3.819,3.819,0,0,0,2.5,9.536a3.243,3.243,0,0,0,3.417,3.538,6.58,6.58,0,0,0,1.627-.2A4.957,4.957,0,0,0,9.686,11.4,6.245,6.245,0,0,0,11,12.914a.558.558,0,0,0,.556-.039c.477-.4,1.312-1.114,1.748-1.511a.429.429,0,0,0,.039-.6,2.974,2.974,0,0,1-.874-2.107V5.086c0-1.51.121-2.9-.992-3.934A5.344,5.344,0,0,0,8.018,0H7.541C5.516.118,3.372.992,2.893,3.5a.373.373,0,0,0,.319.476l2.225.278a.506.506,0,0,0,.4-.436A1.816,1.816,0,0,1,7.541,2.423H7.7a1.559,1.559,0,0,1,1.271.6A2.987,2.987,0,0,1,9.25,4.69v.318Z" transform="translate(0.713)" fill="#343b45" fill-rule="evenodd"/>
          <path id="Path_153" data-name="Path 153" d="M18,10.657h0a.855.855,0,0,0-.126-.449l-.008-.012-.01-.012a.615.615,0,0,0-.238-.156,3.043,3.043,0,0,0-1.037-.147,4.7,4.7,0,0,0-1,.1V9.962l-.346.115-.006,0-.2.064v.008a3.064,3.064,0,0,0-.632.355.494.494,0,0,0-.225.393.367.367,0,0,0,.131.282.42.42,0,0,0,.267.091.312.312,0,0,0,.056,0h.017l.013,0c.169-.036.416-.06.7-.1a6.96,6.96,0,0,1,.738-.048,2.024,2.024,0,0,1,.405.032.453.453,0,0,1,.107.034.057.057,0,0,1,.016.007.358.358,0,0,1,.01.1,3.453,3.453,0,0,1-.189.889c-.108.345-.239.691-.326.921a.467.467,0,0,0-.035.175.381.381,0,0,0,.116.278.39.39,0,0,0,.265.1h0a.533.533,0,0,0,.328-.125A4.064,4.064,0,0,0,18,10.77Zm-2.6,1.095a.617.617,0,0,0-.268.06c-.1.038-.195.083-.288.122l-.137.057-.178.071v0a16.793,16.793,0,0,1-5.838,1.283c-.069,0-.139,0-.205,0-2.953,0-5.361-1.368-7.791-2.718a.556.556,0,0,0-.257-.068.449.449,0,0,0-.3.118.416.416,0,0,0-.129.3.479.479,0,0,0,.189.371c2.281,1.981,4.78,3.821,8.143,3.823.066,0,.132,0,.2,0a13.218,13.218,0,0,0,6.435-1.95l.012-.007a6.574,6.574,0,0,0,.723-.5.577.577,0,0,0,.243-.448A.537.537,0,0,0,15.393,11.752Z" transform="translate(0 2.823)" fill="#ff9a00" fill-rule="evenodd"/>
        </g>
      </g>
    </g>
  </g>
</svg>
