<svg xmlns="http://www.w3.org/2000/svg" xmlns:xlink="http://www.w3.org/1999/xlink" width="20" height="20" viewBox="0 0 20 20">
  <defs>
    <clipPath id="clip-path">
      <rect id="Rectangle_458" data-name="Rectangle 458" width="20" height="20" transform="translate(-4819.214 1487.786)" fill="#fc573b" stroke="#707070" stroke-width="1"/>
    </clipPath>
  </defs>
  <g id="Mask_Group_218" data-name="Mask Group 218" transform="translate(4819.214 -1487.786)" clip-path="url(#clip-path)">
    <path id="Apache_kafka" d="M9.5,10.84a2.543,2.543,0,0,0-1.913.869l-1.2-.849A3.234,3.234,0,0,0,6.4,8.638l1.2-.84a2.545,2.545,0,1,0-.536-.962l-1.2.84A3.293,3.293,0,0,0,3.82,6.491V5.048a2.555,2.555,0,1,0-1.1-.012V6.5a3.292,3.292,0,0,0,.023,6.489v1.543a2.551,2.551,0,1,0,1.1,0V12.986a3.294,3.294,0,0,0,2.006-1.167l1.207.854A2.55,2.55,0,1,0,9.5,10.84Zm0-5.966A1.237,1.237,0,1,1,8.266,6.111,1.238,1.238,0,0,1,9.5,4.874ZM2.058,2.551A1.237,1.237,0,1,1,3.3,3.788,1.238,1.238,0,0,1,2.058,2.551ZM4.532,17.02A1.237,1.237,0,1,1,3.3,15.783,1.238,1.238,0,0,1,4.532,17.02ZM3.3,11.465A1.725,1.725,0,1,1,5.021,9.74,1.727,1.727,0,0,1,3.3,11.465ZM9.5,14.628a1.237,1.237,0,1,1,1.237-1.237A1.238,1.238,0,0,1,9.5,14.628Z" transform="translate(-4819 1503.813) rotate(-90)"/>
  </g>
</svg>
