<svg xmlns="http://www.w3.org/2000/svg" xmlns:xlink="http://www.w3.org/1999/xlink" width="18" height="18" viewBox="0 0 18 18">
  <defs>
    <clipPath id="clip-path">
      <rect id="Rectangle_495" data-name="Rectangle 495" width="18" height="18" transform="translate(1029 466)" fill="#f7cd00" stroke="#707070" stroke-width="1"/>
    </clipPath>
  </defs>
  <g id="Mask_Group_240" data-name="Mask Group 240" transform="translate(-1029 -466)" clip-path="url(#clip-path)">
    <g id="book" transform="translate(1029 466)">
      <path id="Path_318" data-name="Path 318" d="M5.74,14.335q-.153-.011-.307-.011H1.326V4.016H0V15.639H8.468l-.119-.118A4.123,4.123,0,0,0,5.74,14.335Z" fill="#3876ac"/>
      <path id="Path_319" data-name="Path 319" d="M5.433,2.361H2.381V13.269H5.433a5.17,5.17,0,0,1,3.04.979V3.681l-.123-.122a4.127,4.127,0,0,0-2.917-1.2ZM6.642,10.8H4.212V9.747h2.43Zm0-2.372H4.212V7.375h2.43Zm0-2.372H4.212V5h2.43Z" fill="#3876ac"/>
      <path id="Path_320" data-name="Path 320" d="M15.619,13.269V2.361H12.567a4.126,4.126,0,0,0-2.917,1.2l-.123.122V14.248a5.17,5.17,0,0,1,3.04-.979h3.052ZM11.358,5h2.43V6.058h-2.43Zm0,2.372h2.43V8.43h-2.43Zm0,2.372h2.43V10.8h-2.43Z" fill="#f7cd00"/>
      <path id="Path_321" data-name="Path 321" d="M16.674,4.016V14.324H12.567a4.126,4.126,0,0,0-2.917,1.2l-.119.118H18V4.016Z" fill="#f7cd00"/>
    </g>
  </g>
</svg>
