<svg xmlns="http://www.w3.org/2000/svg" xmlns:xlink="http://www.w3.org/1999/xlink" width="32" height="32" viewBox="0 0 32 32"><defs><style>.a{stroke:#707070;}.a,.c{fill:url(#a);}.b{clip-path:url(#b);}</style><linearGradient id="a" x1="0.5" x2="0.5" y2="1" gradientUnits="objectBoundingBox"><stop offset="0" stop-color="#ffd800"/><stop offset="1" stop-color="#fd5c00"/></linearGradient><clipPath id="b"><rect class="a" width="32" height="32" transform="translate(19 291.5)"/></clipPath></defs><g class="b" transform="translate(-19 -291.5)"><path class="c" d="M28.079,11.258v4.388c0,3.635-5.895,6.582-13.164,6.582S1.75,19.28,1.75,15.646V11.258c0,3.635,5.895,6.582,13.164,6.582S28.079,14.892,28.079,11.258ZM1.75,18.571c0,3.635,5.895,6.582,13.164,6.582s13.164-2.947,13.164-6.582v4.388c0,3.635-5.895,6.582-13.164,6.582S1.75,26.594,1.75,22.959Zm13.164-3.657c-7.27,0-13.164-2.947-13.164-6.582S7.645,1.75,14.914,1.75,28.079,4.7,28.079,8.332,22.184,14.914,14.914,14.914Z" transform="translate(20.086 291.95)"/></g></svg>