<svg xmlns="http://www.w3.org/2000/svg" xmlns:xlink="http://www.w3.org/1999/xlink" width="18" height="18" viewBox="0 0 18 18">
  <defs>
    <clipPath id="clip-path">
      <rect id="Rectangle_79" data-name="Rectangle 79" width="18" height="18" fill="#1e90ff"/>
    </clipPath>
  </defs>
  <g id="Mask_Group_29" data-name="Mask Group 29" clip-path="url(#clip-path)">
    <path id="Subtraction_2" data-name="Subtraction 2" d="M16,18H2a2,2,0,0,1-2-2V2A2,2,0,0,1,2,0H16a2,2,0,0,1,2,2V16A2,2,0,0,1,16,18Zm-4.788-7.677-1.339.158c.187,1.886,1.122,2.842,2.78,2.842a2.679,2.679,0,0,0,2.076-.734,2.614,2.614,0,0,0,.664-1.813,3.008,3.008,0,0,0-.243-1.269,2.147,2.147,0,0,0-.7-.852,5.147,5.147,0,0,0-1.494-.631A3.871,3.871,0,0,1,11.7,7.516a.722.722,0,0,1-.272-.569.7.7,0,0,1,.3-.574,1.375,1.375,0,0,1,.853-.231,1.25,1.25,0,0,1,.853.266,1.5,1.5,0,0,1,.39.932L15.2,7.266a2.6,2.6,0,0,0-.712-1.859,2.591,2.591,0,0,0-1.87-.65,2.941,2.941,0,0,0-1.339.276,2.022,2.022,0,0,0-.85.819,2.426,2.426,0,0,0-.309,1.219,2.507,2.507,0,0,0,.24,1.086,2.2,2.2,0,0,0,.647.816,4.18,4.18,0,0,0,1.283.575,10.487,10.487,0,0,1,1.232.427.919.919,0,0,1,.378.324.892.892,0,0,1,.125.481,1.05,1.05,0,0,1-.356.8,1.4,1.4,0,0,1-.977.325C11.86,11.911,11.362,11.376,11.212,10.323ZM5.85,4.757a3.04,3.04,0,0,0-1.712.469A3.311,3.311,0,0,0,2.994,6.653a5.9,5.9,0,0,0-.438,2.438A4.893,4.893,0,0,0,3.528,12.3a2.881,2.881,0,0,0,2.327,1.022,2.857,2.857,0,0,0,2.317-1.034A4.958,4.958,0,0,0,9.144,9.04a4.878,4.878,0,0,0-.918-3.17A2.949,2.949,0,0,0,5.85,4.757Zm.009,7.136a1.645,1.645,0,0,1-1.347-.715,3.541,3.541,0,0,1-.543-2.145,3.591,3.591,0,0,1,.526-2.153,1.644,1.644,0,0,1,1.364-.695,1.621,1.621,0,0,1,1.354.689,3.566,3.566,0,0,1,.518,2.13A3.645,3.645,0,0,1,7.2,11.184,1.622,1.622,0,0,1,5.859,11.894Z" fill="#1e90ff"/>
  </g>
</svg>
