<svg xmlns="http://www.w3.org/2000/svg" xmlns:xlink="http://www.w3.org/1999/xlink" width="32" height="32" viewBox="0 0 32 32"><defs><style>.a{fill:#1e90ff;}.b{clip-path:url(#a);}</style><clipPath id="a"><rect class="a" width="32" height="32" transform="translate(-0.266 0)"/></clipPath></defs><g class="b" transform="translate(0.266 0)"><path class="a" d="M29,32H3a3,3,0,0,1-3-3V3A3,3,0,0,1,3,0H29a3,3,0,0,1,3,3V29A3,3,0,0,1,29,32ZM19.932,18.351l-2.381.282c.333,3.352,2,5.053,4.942,5.053a4.762,4.762,0,0,0,3.692-1.306,4.651,4.651,0,0,0,1.18-3.224,5.345,5.345,0,0,0-.431-2.254,3.83,3.83,0,0,0-1.25-1.516,9.159,9.159,0,0,0-2.656-1.12,6.888,6.888,0,0,1-2.22-.9,1.282,1.282,0,0,1-.483-1.012,1.249,1.249,0,0,1,.532-1.021,2.449,2.449,0,0,1,1.517-.411,2.223,2.223,0,0,1,1.517.472,2.651,2.651,0,0,1,.693,1.657l2.441-.13a4.628,4.628,0,0,0-1.265-3.3,4.609,4.609,0,0,0-3.325-1.155,5.236,5.236,0,0,0-2.381.491A3.6,3.6,0,0,0,18.542,10.4a4.328,4.328,0,0,0-.548,2.168,4.471,4.471,0,0,0,.427,1.932,3.9,3.9,0,0,0,1.15,1.45,7.442,7.442,0,0,0,2.28,1.023,18.564,18.564,0,0,1,2.19.758,1.634,1.634,0,0,1,.673.577,1.575,1.575,0,0,1,.221.853A1.868,1.868,0,0,1,24.3,20.6a2.488,2.488,0,0,1-1.737.578C21.085,21.174,20.2,20.224,19.932,18.351ZM10.4,8.457a5.406,5.406,0,0,0-3.044.833,5.9,5.9,0,0,0-2.034,2.536,10.507,10.507,0,0,0-.779,4.334,8.7,8.7,0,0,0,1.728,5.706,5.125,5.125,0,0,0,4.138,1.818,5.079,5.079,0,0,0,4.118-1.839,8.817,8.817,0,0,0,1.728-5.775,8.671,8.671,0,0,0-1.633-5.635A5.243,5.243,0,0,0,10.4,8.457Zm.015,12.686a2.92,2.92,0,0,1-2.395-1.271,6.285,6.285,0,0,1-.966-3.812,6.376,6.376,0,0,1,.936-3.828A2.919,2.919,0,0,1,10.416,11a2.888,2.888,0,0,1,2.409,1.225,6.349,6.349,0,0,1,.92,3.787,6.482,6.482,0,0,1-.945,3.872A2.883,2.883,0,0,1,10.416,21.144Z" transform="translate(-0.266 0)"/></g></svg>