<svg xmlns="http://www.w3.org/2000/svg" xmlns:xlink="http://www.w3.org/1999/xlink" width="32" height="32" viewBox="0 0 32 32"><defs><style>.a{stroke:#707070;}.a,.c{fill:url(#a);}.b{clip-path:url(#b);}</style><linearGradient id="a" x1="0.5" x2="0.5" y2="1" gradientUnits="objectBoundingBox"><stop offset="0" stop-color="#2196f3"/><stop offset="1" stop-color="#1667b7"/></linearGradient><clipPath id="b"><rect class="a" width="32" height="32" transform="translate(19 345.5)"/></clipPath></defs><g class="b" transform="translate(-19 -345.5)"><g transform="translate(21.971 345.5)"><g transform="translate(0 0)"><path class="c" d="M14.545,1.455H16.72a2.184,2.184,0,0,1,2.065,1.455h4.79a2.769,2.769,0,0,1,2.606,2.9V29.1A2.768,2.768,0,0,1,23.576,32H2.606A2.769,2.769,0,0,1,0,29.1V5.8a2.768,2.768,0,0,1,2.606-2.9H7.4A2.183,2.183,0,0,1,9.461,1.455h2.175a1.455,1.455,0,1,1,2.909,0Zm-7.273,16a1.449,1.449,0,0,0,1.45,1.455h8.736a1.455,1.455,0,0,0,0-2.909H8.723A1.459,1.459,0,0,0,7.273,17.455Zm0-5.818a1.449,1.449,0,0,0,1.45,1.455h8.736a1.455,1.455,0,0,0,0-2.909H8.723A1.459,1.459,0,0,0,7.273,11.636Zm0,11.636a1.449,1.449,0,0,0,1.45,1.455h8.736a1.455,1.455,0,0,0,0-2.909H8.723A1.459,1.459,0,0,0,7.273,23.273Z" transform="translate(0 0)"/></g></g></g></svg>