<svg xmlns="http://www.w3.org/2000/svg" xmlns:xlink="http://www.w3.org/1999/xlink" width="32" height="32" viewBox="0 0 32 32">
  <defs>
    <clipPath id="clip-path">
      <rect id="Rectangle_65" data-name="Rectangle 65" width="32" height="32" transform="translate(-0.266)" fill="#939393" stroke="#707070" stroke-width="1"/>
    </clipPath>
  </defs>
  <g id="Mask_Group_31" data-name="Mask Group 31" transform="translate(0.266)" clip-path="url(#clip-path)">
    <g id="dialog" transform="translate(-0.188 0.471)">
      <g id="Group_30" data-name="Group 30" transform="translate(8.763 6.588)">
        <g id="Group_29" data-name="Group 29">
          <path id="Path_66" data-name="Path 66" d="M25.659,3.088H21.424v11.42a4.24,4.24,0,0,1-4.235,4.235H8.421l-1.344.941L5.06,21.1l-1.226.858a1.408,1.408,0,0,0,1.119.553H14.61l6.851,4.8a1.412,1.412,0,0,0,2.221-1.156V22.508h1.976A1.412,1.412,0,0,0,27.071,21.1V4.5A1.412,1.412,0,0,0,25.659,3.088Z" transform="translate(-3.834 -3.088)" fill="#8ee26b"/>
        </g>
      </g>
      <g id="Group_32" data-name="Group 32">
        <g id="Group_31" data-name="Group 31">
          <path id="Path_67" data-name="Path 67" d="M22.118.206H1.412A1.412,1.412,0,0,0,0,1.618v16.6a1.412,1.412,0,0,0,1.412,1.412H3.388v3.639A1.412,1.412,0,0,0,5.61,24.421l2.861-2,1.412-.988,1.412-.988,1.167-.817h9.657a1.412,1.412,0,0,0,1.412-1.412V1.618A1.412,1.412,0,0,0,22.118.206ZM16.471,14.324H7.059a1.412,1.412,0,0,1,0-2.823h9.412a1.412,1.412,0,1,1,0,2.823Zm0-5.647H7.059a1.412,1.412,0,0,1,0-2.823h9.412a1.412,1.412,0,1,1,0,2.823Z" transform="translate(0 -0.206)" fill="#00cb75"/>
        </g>
      </g>
    </g>
  </g>
</svg>
