<svg xmlns="http://www.w3.org/2000/svg" xmlns:xlink="http://www.w3.org/1999/xlink" width="32" height="32" viewBox="0 0 32 32"><defs><style>.a{fill:#939393;stroke:#707070;}.b{clip-path:url(#a);}.c{fill:#8ee26b;}.d{fill:#00cb75;}</style><clipPath id="a"><rect class="a" width="32" height="32" transform="translate(-0.266)"/></clipPath></defs><g class="b" transform="translate(0.266)"><g transform="translate(-0.188 0.471)"><g transform="translate(8.763 6.588)"><path class="c" d="M25.659,3.088H21.424v11.42a4.24,4.24,0,0,1-4.235,4.235H8.421l-1.344.941L5.06,21.1l-1.226.858a1.408,1.408,0,0,0,1.119.553H14.61l6.851,4.8a1.412,1.412,0,0,0,2.221-1.156V22.508h1.976A1.412,1.412,0,0,0,27.071,21.1V4.5A1.412,1.412,0,0,0,25.659,3.088Z" transform="translate(-3.834 -3.088)"/></g><path class="d" d="M22.118.206H1.412A1.412,1.412,0,0,0,0,1.618v16.6a1.412,1.412,0,0,0,1.412,1.412H3.388v3.639A1.412,1.412,0,0,0,5.61,24.421l2.861-2,1.412-.988,1.412-.988,1.167-.817h9.657a1.412,1.412,0,0,0,1.412-1.412V1.618A1.412,1.412,0,0,0,22.118.206ZM16.471,14.324H7.059a1.412,1.412,0,0,1,0-2.823h9.412a1.412,1.412,0,1,1,0,2.823Zm0-5.647H7.059a1.412,1.412,0,0,1,0-2.823h9.412a1.412,1.412,0,1,1,0,2.823Z" transform="translate(0 -0.206)"/></g></g></svg>