<svg xmlns="http://www.w3.org/2000/svg" xmlns:xlink="http://www.w3.org/1999/xlink" width="18" height="18" viewBox="0 0 18 18">
  <defs>
    <clipPath id="clip-path">
      <rect id="Rectangle_450" data-name="Rectangle 450" width="18" height="18" transform="translate(18 426.5)" fill="#939393" stroke="#707070" stroke-width="1"/>
    </clipPath>
  </defs>
  <g id="Mask_Group_203" data-name="Mask Group 203" transform="translate(-18 -426.5)" clip-path="url(#clip-path)">
    <g id="dialog" transform="translate(18 426.765)">
      <g id="Group_259" data-name="Group 259" transform="translate(4.929 3.706)">
        <g id="Group_258" data-name="Group 258">
          <path id="Path_272" data-name="Path 272" d="M16.11,3.088H13.728V9.512a2.385,2.385,0,0,1-2.382,2.382H6.414l-.756.529-1.134.794-.69.483a.792.792,0,0,0,.63.311H9.9l3.854,2.7A.794.794,0,0,0,15,16.059V14.012H16.11a.794.794,0,0,0,.794-.794V3.882A.794.794,0,0,0,16.11,3.088Z" transform="translate(-3.834 -3.088)" fill="#ff6c6c"/>
        </g>
      </g>
      <g id="Group_261" data-name="Group 261" transform="translate(0 0)">
        <g id="Group_260" data-name="Group 260">
          <path id="Path_273" data-name="Path 273" d="M12.441.206H.794A.794.794,0,0,0,0,1v9.335a.794.794,0,0,0,.794.794H1.906v2.047a.794.794,0,0,0,1.25.651L4.765,12.7l.794-.556.794-.556.656-.459h5.432a.794.794,0,0,0,.794-.794V1A.794.794,0,0,0,12.441.206ZM9.265,8.147H3.971a.794.794,0,0,1,0-1.588H9.265a.794.794,0,1,1,0,1.588Zm0-3.177H3.971a.794.794,0,0,1,0-1.588H9.265a.794.794,0,1,1,0,1.588Z" transform="translate(0 -0.206)" fill="#ff405c"/>
        </g>
      </g>
    </g>
  </g>
</svg>
