<svg xmlns="http://www.w3.org/2000/svg" xmlns:xlink="http://www.w3.org/1999/xlink" width="18" height="18" viewBox="0 0 18 18">
  <defs>
    <clipPath id="clip-path">
      <rect id="Rectangle_498" data-name="Rectangle 498" width="18" height="18" transform="translate(1029 498)" fill="#de4c36" stroke="#707070" stroke-width="1"/>
    </clipPath>
  </defs>
  <g id="Mask_Group_241" data-name="Mask Group 241" transform="translate(-1029 -498)" clip-path="url(#clip-path)">
    <path id="surface1" d="M20.1,11.682l-8.01-8.01a.991.991,0,0,0-1.4,0L9.016,5.344l1.736,1.736a1.534,1.534,0,0,1,.639-.147A1.486,1.486,0,0,1,12.877,8.42a1.507,1.507,0,0,1-.151.639l1.988,1.984a1.534,1.534,0,0,1,.639-.147,1.486,1.486,0,1,1-1.486,1.486,1.5,1.5,0,0,1,.147-.639L12.026,9.759a1.235,1.235,0,0,1-.14.053v5.139a1.486,1.486,0,1,1-.991,0V9.812A1.478,1.478,0,0,1,9.906,8.42a1.5,1.5,0,0,1,.147-.639L8.316,6.047,2.681,11.682a.991.991,0,0,0,0,1.4l8.01,8.01a.991.991,0,0,0,1.4,0l8.01-8.01a.991.991,0,0,0,0-1.4Z" transform="translate(1026.608 494.618)" fill="#de4c36"/>
  </g>
</svg>
