<svg xmlns="http://www.w3.org/2000/svg" xmlns:xlink="http://www.w3.org/1999/xlink" width="15" height="15" viewBox="0 0 15 15">
  <defs>
    <clipPath id="clip-path">
      <rect id="Rectangle_491" data-name="Rectangle 491" width="15" height="15" transform="translate(617.274 280.274)" fill="#fff" stroke="#fff" stroke-width="1"/>
    </clipPath>
  </defs>
  <g id="Mask_Group_234" data-name="Mask Group 234" transform="translate(-617.274 -280.274)" opacity="0.75" clip-path="url(#clip-path)">
    <path id="drag" d="M11.051,1.583a1.577,1.577,0,0,0-.88.267A1.583,1.583,0,0,0,7.8,1.059a1.583,1.583,0,0,0-2.988,0A1.582,1.582,0,0,0,2.347,2.374V4.188l-.772.771A2.753,2.753,0,0,0,.765,6.917v1.2a2.754,2.754,0,0,0,.811,1.959l1.583,1.583a6.084,6.084,0,0,0,4.332,1.794,5.149,5.149,0,0,0,5.143-5.143V3.165A1.584,1.584,0,0,0,11.051,1.583Zm.791,6.726A4.357,4.357,0,0,1,7.49,12.661,5.3,5.3,0,0,1,3.719,11.1L2.135,9.516a1.968,1.968,0,0,1-.579-1.4v-1.2a1.966,1.966,0,0,1,.579-1.4l.212-.212v.627a.4.4,0,1,0,.791,0V2.374a.791.791,0,0,1,1.583,0V3.561a.4.4,0,1,0,.791,0V1.583a.791.791,0,0,1,1.583,0V3.561a.4.4,0,1,0,.791,0V2.374a.791.791,0,0,1,1.583,0V3.561a.4.4,0,1,0,.791,0v-.4a.791.791,0,0,1,1.583,0Z" transform="translate(618.075 281.048)" fill="#fff" stroke="#fff" stroke-width="0.2"/>
  </g>
</svg>
