<svg xmlns="http://www.w3.org/2000/svg" xmlns:xlink="http://www.w3.org/1999/xlink" width="18" height="18" viewBox="0 0 18 18">
  <defs>
    <clipPath id="clip-path">
      <rect id="Rectangle_74" data-name="Rectangle 74" width="18" height="18" fill="#2e7d32" stroke="#707070" stroke-width="1"/>
    </clipPath>
  </defs>
  <g id="Mask_Group_35" data-name="Mask Group 35" clip-path="url(#clip-path)">
    <g id="file-excel-2-fill">
      <path id="Path_70" data-name="Path 70" d="M0,0H18V18H0Z" fill="none"/>
      <path id="Path_71" data-name="Path 71" d="M1.811,1.978,11.239.632A.375.375,0,0,1,11.667,1V16.638a.375.375,0,0,1-.427.371L1.81,15.663a.75.75,0,0,1-.644-.742V2.721a.75.75,0,0,1,.644-.742Zm10.606.092h3a.75.75,0,0,1,.75.75v12a.75.75,0,0,1-.75.75h-3Zm-5.1,6.75,2.1-3h-1.8l-1.2,1.714-1.2-1.714h-1.8l2.1,3-2.1,3h1.8l1.2-1.714,1.2,1.714h1.8Z" transform="translate(0.333 0.179)" fill="#2e7d32"/>
    </g>
  </g>
</svg>
