<svg xmlns="http://www.w3.org/2000/svg" xmlns:xlink="http://www.w3.org/1999/xlink" width="18" height="18" viewBox="0 0 18 18">
  <defs>
    <clipPath id="clip-path">
      <rect id="Rectangle_186" data-name="Rectangle 186" width="18" height="18" transform="translate(0 0)" fill="#23a566" stroke="#707070" stroke-width="1"/>
    </clipPath>
  </defs>
  <g id="Mask_Group_70" data-name="Mask Group 70" transform="translate(0 0)" clip-path="url(#clip-path)">
    <path id="Subtraction_8" data-name="Subtraction 8" d="M16.015,9.631H1.605A1.607,1.607,0,0,1,0,8.026V1.605A1.607,1.607,0,0,1,1.605,0h14.41a1.607,1.607,0,0,1,1.605,1.605v6.42A1.607,1.607,0,0,1,16.015,9.631Zm-3.991-3.8-.94.11c.132,1.322.788,1.993,1.95,1.993a1.88,1.88,0,0,0,1.456-.515,1.836,1.836,0,0,0,.466-1.272,2.1,2.1,0,0,0-.171-.889,1.5,1.5,0,0,0-.493-.6,3.6,3.6,0,0,0-1.047-.442,2.722,2.722,0,0,1-.877-.356.509.509,0,0,1-.191-.4.5.5,0,0,1,.21-.4.972.972,0,0,1,.6-.162.875.875,0,0,1,.6.186,1.048,1.048,0,0,1,.274.654l.962-.051a1.82,1.82,0,0,0-.5-1.3,1.815,1.815,0,0,0-1.311-.456,2.061,2.061,0,0,0-.94.194,1.42,1.42,0,0,0-.6.574,1.7,1.7,0,0,0-.216.856,1.755,1.755,0,0,0,.169.761,1.539,1.539,0,0,0,.454.573,2.95,2.95,0,0,0,.9.4,7.39,7.39,0,0,1,.864.3.655.655,0,0,1,.266.228A.619.619,0,0,1,14,6.155a.737.737,0,0,1-.25.564.985.985,0,0,1-.686.227c-.584,0-.933-.375-1.038-1.113ZM4.556,5.87v0L5.613,7.839h1.16L5.126,4.808l1.5-2.779H5.51L4.561,3.767,3.617,2.029H2.493l1.5,2.786L2.342,7.839H3.5L4.555,5.871ZM7.288,2.076V7.839h3.353V6.857H8.247V2.076Z" transform="translate(0.19 5.041)" fill="#23a566"/>
    <path id="Path_136" data-name="Path 136" d="M15.241,4.1a2.67,2.67,0,0,0-.572-.923L12.447.835A2.686,2.686,0,0,0,10.505,0H3.382A1.607,1.607,0,0,0,1.777,1.605V4.1Z" transform="translate(0.41 -0.131)" fill="#23a566"/>
    <path id="Path_137" data-name="Path 137" d="M1.777,12.168v.785a1.607,1.607,0,0,0,1.605,1.605H13.8A1.607,1.607,0,0,0,15.4,12.953v-.785Z" transform="translate(0.41 3.574)" fill="#23a566"/>
  </g>
</svg>
