<svg xmlns="http://www.w3.org/2000/svg" xmlns:xlink="http://www.w3.org/1999/xlink" width="18" height="18" viewBox="0 0 18 18">
  <defs>
    <clipPath id="clip-path">
      <rect id="Rectangle_83" data-name="Rectangle 83" width="18" height="18" transform="translate(18 615.5)" fill="#7383bf" stroke="#707070" stroke-width="1"/>
    </clipPath>
  </defs>
  <g id="Mask_Group_39" data-name="Mask Group 39" transform="translate(-18 -615.5)" clip-path="url(#clip-path)">
    <path id="globe" d="M9.927,1.4a8.527,8.527,0,1,0,8.527,8.527A8.537,8.537,0,0,0,9.927,1.4ZM16.69,9.075H14.333a12.51,12.51,0,0,0-1.528-5.324A6.833,6.833,0,0,1,16.69,9.075ZM10.379,3.128a11.078,11.078,0,0,1,2.24,5.946H7.395a10.876,10.876,0,0,1,2.09-5.947c.147-.009.293-.022.443-.022S10.229,3.119,10.379,3.128Zm-3.276.6A12.912,12.912,0,0,0,5.689,9.075H3.164A6.833,6.833,0,0,1,7.1,3.725ZM3.164,10.78H5.7a13.361,13.361,0,0,0,1.327,5.313A6.83,6.83,0,0,1,3.164,10.78Zm6.294,5.946A10.211,10.211,0,0,1,7.4,10.78h5.213a10.407,10.407,0,0,1-2.22,5.945c-.155.01-.31.024-.47.024S9.614,16.736,9.458,16.726Zm3.42-.658a13.08,13.08,0,0,0,1.442-5.288h2.369A6.826,6.826,0,0,1,12.879,16.068Z" transform="translate(17.073 614.573)" fill="#7383bf"/>
  </g>
</svg>
