<svg xmlns="http://www.w3.org/2000/svg" xmlns:xlink="http://www.w3.org/1999/xlink" width="18" height="18" viewBox="0 0 18 18">
  <defs>
    <clipPath id="clip-path">
      <rect id="Rectangle_92" data-name="Rectangle 92" width="18" height="18" transform="translate(18 669.5)" fill="#9777a8" stroke="#707070" stroke-width="1"/>
    </clipPath>
  </defs>
  <g id="Mask_Group_41" data-name="Mask Group 41" transform="translate(-18 -669.5)" clip-path="url(#clip-path)">
    <path id="Subtraction_3" data-name="Subtraction 3" d="M16,18H2a2,2,0,0,1-2-2V2A2,2,0,0,1,2,0H16a2,2,0,0,1,2,2V16A2,2,0,0,1,16,18Zm-4.738-4.443a.681.681,0,0,0-.458.158.665.665,0,0,0,0,.915.684.684,0,0,0,.458.157h.98a1.576,1.576,0,0,0,1.171-.418,1.6,1.6,0,0,0,.411-1.164V10.667a1.249,1.249,0,0,1,.184-.759.885.885,0,0,1,.653-.274.64.64,0,0,0,.471-.189.659.659,0,0,0,.157-.452.618.618,0,0,0-.163-.445.663.663,0,0,0-.464-.183.885.885,0,0,1-.653-.274,1.246,1.246,0,0,1-.184-.759V4.8a1.6,1.6,0,0,0-.411-1.164,1.576,1.576,0,0,0-1.171-.418h-.98a.681.681,0,0,0-.458.158.572.572,0,0,0-.183.457.576.576,0,0,0,.183.458.684.684,0,0,0,.458.157h.418a.561.561,0,0,1,.411.137.6.6,0,0,1,.138.438v2.51a1.578,1.578,0,0,0,.307.987,1.258,1.258,0,0,0,.726.491,1.266,1.266,0,0,0-.726.483,1.553,1.553,0,0,0-.307.981v2.51a.6.6,0,0,1-.138.438.561.561,0,0,1-.411.137ZM5.757,3.214a1.574,1.574,0,0,0-1.17.418A1.6,1.6,0,0,0,4.175,4.8V7.332a1.252,1.252,0,0,1-.183.759.889.889,0,0,1-.654.274.662.662,0,0,0-.464.183.618.618,0,0,0-.164.445.6.6,0,0,0,.627.641.889.889,0,0,1,.654.274,1.256,1.256,0,0,1,.183.759V13.2a1.6,1.6,0,0,0,.412,1.164,1.574,1.574,0,0,0,1.17.418h.981a.683.683,0,0,0,.457-.157.665.665,0,0,0,0-.915.679.679,0,0,0-.457-.158H6.32a.565.565,0,0,1-.412-.137.6.6,0,0,1-.138-.438v-2.51a1.549,1.549,0,0,0-.307-.981,1.261,1.261,0,0,0-.725-.483,1.252,1.252,0,0,0,.725-.491,1.573,1.573,0,0,0,.307-.987V5.018a.6.6,0,0,1,.138-.438.565.565,0,0,1,.412-.137h.418A.683.683,0,0,0,7.2,4.287a.566.566,0,0,0,.183-.458A.57.57,0,0,0,7.2,3.371a.679.679,0,0,0-.457-.158ZM9,10.549a.931.931,0,0,0-.693.281,1.029,1.029,0,0,0,0,1.4,1,1,0,0,0,1.386,0,1.029,1.029,0,0,0,0-1.4A.934.934,0,0,0,9,10.549Z" transform="translate(18 669.5)" fill="#9777a8"/>
  </g>
</svg>
