<svg xmlns="http://www.w3.org/2000/svg" xmlns:xlink="http://www.w3.org/1999/xlink" width="16" height="16" viewBox="0 0 16 16"><defs><style>.a,.c{fill:#0381e3;}.a{stroke:#707070;}.b{clip-path:url(#a);}</style><clipPath id="a"><rect class="a" width="16" height="16" transform="translate(972.5 16)"/></clipPath></defs><g class="b" transform="translate(-972.5 -16)"><g transform="translate(972.5 16)"><path class="c" d="M8,10.667a.5.5,0,0,1-.362-.155l-3.5-3.667A.5.5,0,0,1,4.5,6H6.333V5.167A5.173,5.173,0,0,1,11.5,0a.5.5,0,0,1,0,1A1.835,1.835,0,0,0,9.667,2.833V6H11.5a.5.5,0,0,1,.362.845l-3.5,3.667A.5.5,0,0,1,8,10.667Z"/><path class="c" d="M14,12H2a2,2,0,0,0,0,4H14a2,2,0,0,0,0-4Zm0,3H7.333V13H14a1,1,0,0,1,0,2Z"/></g></g></svg>