<svg xmlns="http://www.w3.org/2000/svg" xmlns:xlink="http://www.w3.org/1999/xlink" width="20" height="20" viewBox="0 0 20 20"><defs><style>.a,.c{fill:#ff3707;}.a{stroke:#707070;}.b{clip-path:url(#a);}</style><clipPath id="a"><rect class="a" width="20" height="20" transform="translate(10 10)"/></clipPath></defs><g class="b" transform="translate(-10 -10)"><path class="c" d="M10,14.216a5.155,5.155,0,0,1-3.239-1.149l-4.1-3.331a3.4,3.4,0,0,1,0-5.266l4.1-3.331a5.168,5.168,0,0,1,6.477,0l4.1,3.331a3.394,3.394,0,0,1,1.13,3.546A.782.782,0,1,1,16.967,7.6a1.831,1.831,0,0,0-.609-1.913l-4.1-3.331a3.592,3.592,0,0,0-4.507,0l-4.1,3.331a1.835,1.835,0,0,0,0,2.838l4.1,3.331a3.592,3.592,0,0,0,4.5.005l.686-.583a.782.782,0,1,1,1.013,1.191l-.693.589-.014.012A5.155,5.155,0,0,1,10,14.216Zm3.239,4.635,4.1-3.331a3.4,3.4,0,0,0,0-5.266l-4.1-3.331a5.168,5.168,0,0,0-6.477,0L6.183,7.4a.782.782,0,0,0,.991,1.209l.574-.471a3.593,3.593,0,0,1,4.506,0l4.1,3.331a1.835,1.835,0,0,1,0,2.838l-4.1,3.331a3.592,3.592,0,0,1-4.507,0l-4.1-3.331A1.831,1.831,0,0,1,3,12.558a.782.782,0,1,0-1.538-.279,3.394,3.394,0,0,0,1.2,3.241l4.1,3.331a5.14,5.14,0,0,0,6.477,0Z" transform="translate(10 10)"/></g></svg>