<svg xmlns="http://www.w3.org/2000/svg" xmlns:xlink="http://www.w3.org/1999/xlink" width="16" height="16" viewBox="0 0 16 16"><defs><style>.a,.c{fill:#0381e3;}.a{stroke:#707070;}.b{clip-path:url(#a);}.d{fill:#f3f3f3;stroke:#f3f3f3;stroke-width:0.5px;}</style><clipPath id="a"><rect class="a" width="16" height="16" transform="translate(-3555.5 1888)"/></clipPath></defs><g class="b" transform="translate(3555.5 -1888)"><path class="c" d="M14.74,0H2.956a.6.6,0,0,0-.6.6V11.784H.6a.6.6,0,0,0-.6.6,2.959,2.959,0,0,0,2.956,2.956h9.427a2.959,2.959,0,0,0,2.956-2.956V.6a.6.6,0,0,0-.6-.6ZM2.956,14.141A1.76,1.76,0,0,1,1.3,12.982H9.488a2.944,2.944,0,0,0,.52,1.158Z" transform="translate(-3555.169 1888.331)"/><path class="d" d="M7.456,3.532H4.317V.392a.392.392,0,0,0-.785,0v3.14H.392a.392.392,0,0,0,0,.785h3.14v3.14a.392.392,0,1,0,.785,0V4.317h3.14a.392.392,0,1,0,0-.785Zm0,0" transform="translate(-3550.186 1891)"/></g></svg>