<svg xmlns="http://www.w3.org/2000/svg" xmlns:xlink="http://www.w3.org/1999/xlink" width="18" height="18" viewBox="0 0 18 18">
  <defs>
    <clipPath id="clip-path">
      <rect id="Rectangle_449" data-name="Rectangle 449" width="18" height="18" transform="translate(19 372.5)" fill="#0c0"/>
    </clipPath>
  </defs>
  <g id="Mask_Group_200" data-name="Mask Group 200" transform="translate(-19 -372.5)" clip-path="url(#clip-path)">
    <path id="Subtraction_13" data-name="Subtraction 13" d="M16,18H2a2,2,0,0,1-2-2V2A2,2,0,0,1,2,0H16a2,2,0,0,1,2,2V16A2,2,0,0,1,16,18Zm-4.788-7.677-1.338.158c.187,1.886,1.122,2.842,2.779,2.842a2.676,2.676,0,0,0,2.076-.734,2.615,2.615,0,0,0,.664-1.813,3.006,3.006,0,0,0-.243-1.268,2.156,2.156,0,0,0-.7-.853,5.154,5.154,0,0,0-1.494-.63A3.882,3.882,0,0,1,11.7,7.516a.722.722,0,0,1-.272-.569.7.7,0,0,1,.3-.575,1.38,1.38,0,0,1,.853-.23,1.25,1.25,0,0,1,.853.266,1.487,1.487,0,0,1,.39.931L15.2,7.266a2.6,2.6,0,0,0-.712-1.859,2.591,2.591,0,0,0-1.87-.65,2.941,2.941,0,0,0-1.339.276,2.023,2.023,0,0,0-.851.818,2.439,2.439,0,0,0-.308,1.22,2.509,2.509,0,0,0,.24,1.087,2.2,2.2,0,0,0,.646.815,4.223,4.223,0,0,0,1.282.576,10.5,10.5,0,0,1,1.232.426.917.917,0,0,1,.379.325.886.886,0,0,1,.124.48,1.048,1.048,0,0,1-.356.8,1.4,1.4,0,0,1-.977.325C11.86,11.91,11.362,11.376,11.211,10.322ZM5.85,4.757a3.034,3.034,0,0,0-1.712.469A3.316,3.316,0,0,0,2.993,6.653a5.913,5.913,0,0,0-.437,2.438A4.891,4.891,0,0,0,3.528,12.3a2.882,2.882,0,0,0,2.327,1.023,2.857,2.857,0,0,0,2.317-1.034A4.963,4.963,0,0,0,9.144,9.04a4.882,4.882,0,0,0-.918-3.17A2.95,2.95,0,0,0,5.85,4.757Zm.008,7.135a1.64,1.64,0,0,1-1.346-.715,3.534,3.534,0,0,1-.544-2.144,3.584,3.584,0,0,1,.526-2.153,1.642,1.642,0,0,1,1.364-.695,1.622,1.622,0,0,1,1.355.689,3.562,3.562,0,0,1,.517,2.129A3.645,3.645,0,0,1,7.2,11.183,1.62,1.62,0,0,1,5.858,11.893Z" transform="translate(19 372.5)" fill="#0c0"/>
  </g>
</svg>
