<svg xmlns="http://www.w3.org/2000/svg" xmlns:xlink="http://www.w3.org/1999/xlink" width="18" height="18" viewBox="0 0 18 18">
  <defs>
    <clipPath id="clip-path">
      <rect id="Rectangle_424" data-name="Rectangle 424" width="18" height="18" fill="#c43286" stroke="#707070" stroke-width="1"/>
    </clipPath>
  </defs>
  <g id="Mask_Group_202" data-name="Mask Group 202" clip-path="url(#clip-path)">
    <path id="Path_270" data-name="Path 270" d="M18,0H0V18H18Z" fill="none"/>
    <path id="Path_271" data-name="Path 271" d="M14.057,16.125a2.625,2.625,0,1,0-2.516-3.375H7.307v-1.5h-1.5V6.931L7.49,5.25h4.318v1.5h4.5V2.25h-4.5v1.5H7.49L5.057,1.317,1.875,4.5,4.307,6.931V11.25h-1.5v4.5h4.5v-1.5h4.234A2.626,2.626,0,0,0,14.057,16.125Zm0-3.75A1.125,1.125,0,1,1,12.932,13.5,1.125,1.125,0,0,1,14.057,12.375Zm-9.75.375h1.5v1.5h-1.5Zm.75-9.311L6.118,4.5,5.057,5.561,4,4.5Zm8.25.311h1.5v1.5h-1.5Z" transform="translate(-0.557)" fill="#c43286"/>
  </g>
</svg>
