<svg xmlns="http://www.w3.org/2000/svg" xmlns:xlink="http://www.w3.org/1999/xlink" width="18" height="18" viewBox="0 0 18 18">
  <defs>
    <clipPath id="clip-path">
      <rect id="Rectangle_435" data-name="Rectangle 435" width="18" height="18" transform="translate(-4819 1206)" fill="#2f4a57" stroke="#707070" stroke-width="1"/>
    </clipPath>
  </defs>
  <g id="Mask_Group_204" data-name="Mask Group 204" transform="translate(4819 -1206)" clip-path="url(#clip-path)">
    <g id="settings_remote-24px" transform="translate(-4819 1206)">
      <path id="Path_274" data-name="Path 274" d="M0,0H18V18H0Z" fill="none"/>
      <path id="Path_275" data-name="Path 275" d="M11.25,6.75H6.75A.752.752,0,0,0,6,7.5v9a.752.752,0,0,0,.75.75h4.5A.752.752,0,0,0,12,16.5v-9A.752.752,0,0,0,11.25,6.75ZM9,11.25a1.5,1.5,0,1,1,1.5-1.5A1.5,1.5,0,0,1,9,11.25ZM5.865,5.115a.761.761,0,0,0,.975.075A3.706,3.706,0,0,1,9,4.5a3.754,3.754,0,0,1,2.16.682.761.761,0,0,0,.975-.068.747.747,0,0,0-.068-1.125,5.247,5.247,0,0,0-6.135,0,.741.741,0,0,0-.068,1.125ZM9,0A8.227,8.227,0,0,0,3.788,1.852a.756.756,0,0,0-.06,1.118.737.737,0,0,0,.99.053A6.776,6.776,0,0,1,9,1.5a6.7,6.7,0,0,1,4.275,1.53.737.737,0,0,0,.99-.053A.756.756,0,0,0,14.2,1.86,8.154,8.154,0,0,0,9,0Z" fill="#2f4a57"/>
    </g>
  </g>
</svg>
