<?xml version="1.0" encoding="UTF-8" standalone="no"?><!DOCTYPE svg PUBLIC "-//W3C//DTD SVG 1.1//EN" "http://www.w3.org/Graphics/SVG/1.1/DTD/svg11.dtd"><svg width="100%" height="100%" viewBox="0 0 80 73" version="1.1" xmlns="http://www.w3.org/2000/svg" xmlns:xlink="http://www.w3.org/1999/xlink" xml:space="preserve" xmlns:serif="http://www.serif.com/" style="fill-rule:evenodd;clip-rule:evenodd;stroke-linejoin:round;stroke-miterlimit:2;"><g><path d="M29,47.17c-1.989,0 -3.625,1.637 -3.625,3.625c0,1.989 1.636,3.625 3.625,3.625c1.989,0 3.625,-1.636 3.625,-3.625c0,-1.988 -1.636,-3.625 -3.625,-3.625Zm-25.375,-3.625c-1.989,0 -3.625,1.637 -3.625,3.625l0,7.25c0,1.989 1.636,3.625 3.625,3.625c1.989,0 3.625,-1.636 3.625,-3.625l0,-7.25c0,-1.988 -1.636,-3.625 -3.625,-3.625Zm72.5,0c-1.989,0 -3.625,1.637 -3.625,3.625l0,7.25c0,1.989 1.636,3.625 3.625,3.625c1.989,0 3.625,-1.636 3.625,-3.625l0,-7.25c0,-1.987 -1.634,-3.622 -3.621,-3.625l-0.004,0Zm-18.121,-25.375l-14.504,0l0,-4.641c2.24,-1.294 3.625,-3.692 3.625,-6.279c0,-3.977 -3.273,-7.25 -7.25,-7.25c-3.977,0 -7.25,3.273 -7.25,7.25c0,2.587 1.385,4.985 3.625,6.279l0,4.641l-14.5,0c-5.966,0 -10.875,4.91 -10.875,10.875c-0,0.005 -0,0.009 0,0.013l0,32.625c0,5.966 4.909,10.875 10.875,10.875l36.25,-0c5.966,-0 10.875,-4.909 10.875,-10.875l0,-32.625c0,-0.004 0,-0.008 0,-0.013c0,-5.964 -4.907,-10.872 -10.871,-10.875Zm3.621,43.5c0,1.989 -1.636,3.625 -3.625,3.625l-36.25,0c-1.989,0 -3.625,-1.636 -3.625,-3.625l0,-32.612c0,-1.989 1.636,-3.625 3.625,-3.625l4.425,-0c3.238,13.404 24.167,13.404 27.404,-0l4.421,-0c1.989,-0 3.625,1.636 3.625,3.625l0,32.612Zm-10.867,-14.5c-1.988,0 -3.625,1.637 -3.625,3.625c0,1.989 1.637,3.625 3.625,3.625c1.989,0 3.625,-1.636 3.625,-3.625c0,-1.988 -1.636,-3.625 -3.625,-3.625Z" style="fill:#0381e3;fill-rule:nonzero;"/></g></svg>