<svg xmlns="http://www.w3.org/2000/svg" xmlns:xlink="http://www.w3.org/1999/xlink" width="18" height="18" viewBox="0 0 18 18">
  <defs>
    <clipPath id="clip-path">
      <rect id="Rectangle_101" data-name="Rectangle 101" width="18" height="18" transform="translate(18 832)" fill="#433b3f" stroke="#707070" stroke-width="1"/>
    </clipPath>
  </defs>
  <g id="Mask_Group_47" data-name="Mask Group 47" transform="translate(-18 -832)" clip-path="url(#clip-path)">
    <path id="ic_lock_24px" d="M14.667,6.667H13.81V4.952a4.286,4.286,0,0,0-8.571,0V6.667H4.381A1.719,1.719,0,0,0,2.667,8.381v8.571a1.719,1.719,0,0,0,1.714,1.714H14.667a1.719,1.719,0,0,0,1.714-1.714V8.381A1.719,1.719,0,0,0,14.667,6.667ZM9.524,14.381a1.714,1.714,0,1,1,1.714-1.714A1.719,1.719,0,0,1,9.524,14.381Zm2.657-7.714H6.867V4.952a2.657,2.657,0,0,1,5.314,0Z" transform="translate(17.476 831.333)" fill="#433b3f"/>
  </g>
</svg>
