<?xml version="1.0" encoding="UTF-8" standalone="no"?><!DOCTYPE svg PUBLIC "-//W3C//DTD SVG 1.1//EN" "http://www.w3.org/Graphics/SVG/1.1/DTD/svg11.dtd"><svg width="100%" height="100%" viewBox="0 0 71 65" version="1.1" xmlns="http://www.w3.org/2000/svg" xmlns:xlink="http://www.w3.org/1999/xlink" xml:space="preserve" xmlns:serif="http://www.serif.com/" style="fill-rule:evenodd;clip-rule:evenodd;stroke-linejoin:round;stroke-miterlimit:2;"><g><g><path d="M61.746,-0l-52.925,-0c-4.837,0.007 -8.814,3.984 -8.821,8.821l0,47.041c0.007,4.837 3.984,8.814 8.821,8.821l52.917,0c4.836,-0.007 8.813,-3.984 8.82,-8.821l0,-47.041c-0.006,-4.833 -3.979,-8.81 -8.812,-8.821Zm-0,58.804l-52.925,0c-1.614,0 -2.942,-1.328 -2.942,-2.942l0,-41.162l58.809,-0l-0,41.162c-0,1.614 -1.328,2.942 -2.942,2.942Z" style="fill:#0381e3;fill-rule:nonzero;"/><path d="M20.583,49.983c-1.607,-0.01 -2.923,-1.334 -2.923,-2.941c-0,-0.77 0.302,-1.509 0.84,-2.059l6.746,-6.762l-6.742,-6.742c-0.552,-0.552 -0.863,-1.302 -0.863,-2.083c0,-1.616 1.33,-2.946 2.947,-2.946c0.781,-0 1.531,0.31 2.083,0.862l8.812,8.83c0.56,0.548 0.876,1.299 0.876,2.083c-0,0.784 -0.316,1.535 -0.876,2.083l-8.841,8.813c-0.551,0.555 -1.302,0.866 -2.084,0.862l0.025,0Z" style="fill:#0381e3;fill-rule:nonzero;"/><path d="M49.988,49.983l-11.763,0c-0.037,0.002 -0.074,0.002 -0.111,0.002c-1.613,0 -2.941,-1.327 -2.941,-2.941c-0,-1.614 1.328,-2.942 2.941,-2.942c0.037,0 0.074,0.001 0.111,0.002l11.763,0c1.57,0.059 2.83,1.368 2.83,2.94c0,1.572 -1.26,2.88 -2.83,2.939Z" style="fill:#0381e3;fill-rule:nonzero;"/></g></g></svg>