<svg xmlns="http://www.w3.org/2000/svg" xmlns:xlink="http://www.w3.org/1999/xlink" width="18" height="18" viewBox="0 0 18 18">
  <defs>
    <clipPath id="clip-path">
      <rect id="Rectangle_115" data-name="Rectangle 115" width="18" height="18" transform="translate(18 886)" fill="#939393"/>
    </clipPath>
  </defs>
  <g id="Mask_Group_49" data-name="Mask Group 49" transform="translate(-18 -886)" clip-path="url(#clip-path)">
    <path id="Subtraction_5" data-name="Subtraction 5" d="M16,18H2a2,2,0,0,1-2-2V2A2,2,0,0,1,2,0H16a2,2,0,0,1,2,2V16A2,2,0,0,1,16,18Zm-5.666-6.532h0l.348,1.043h3.19v-1.74h.869a2.609,2.609,0,1,0,0-5.218H12.133v5.509L9.93,5.554H7.9L6.11,10.125A2.383,2.383,0,0,0,4.131,8.569c-1.765-.471-1.855-.7-1.855-1.043,0-.439.59-.531,1.084-.531a6.087,6.087,0,0,1,1.814.3c.173-.46.518-1.325.521-1.334a5.437,5.437,0,0,0-2.609-.406C1.069,5.555.536,6.843.536,7.524A2.024,2.024,0,0,0,2.046,9.5c.257.076.5.14.721.2.788.2,1.309.337,1.309.788,0,.287-.486.48-1.21.48A3.632,3.632,0,0,1,1,10.482L.536,11.992a4.317,4.317,0,0,0,2.551.52A3.829,3.829,0,0,0,5.454,11.8l-.279.711H7.2l.349-1.044a3.471,3.471,0,0,0,2.78,0Zm-1.39-1.216a1.387,1.387,0,0,1-.87-.234l.87-2.493.869,2.493A1.382,1.382,0,0,1,8.944,10.252Zm5.8-1.219h-.869V7.294h.869a.87.87,0,0,1,0,1.74Z" transform="translate(18 886)" fill="#0964af"/>
  </g>
</svg>
