<svg xmlns="http://www.w3.org/2000/svg" xmlns:xlink="http://www.w3.org/1999/xlink" width="16" height="16" viewBox="0 0 16 16"><defs><style>.a,.c{fill:#0381e3;}.a{stroke:#707070;}.b{clip-path:url(#a);}</style><clipPath id="a"><rect class="a" width="16" height="16" transform="translate(926.5 18)"/></clipPath></defs><g class="b" transform="translate(-926.5 -18)"><path class="c" d="M12.962,1.714,11.914.666A2.268,2.268,0,0,0,10.308,0H1.562A1.561,1.561,0,0,0,0,1.562v10.5a1.561,1.561,0,0,0,1.562,1.562h10.5a1.561,1.561,0,0,0,1.562-1.562V3.319a2.268,2.268,0,0,0-.666-1.606ZM2.271,3.549V2.129A.426.426,0,0,1,2.7,1.7H8.659a.426.426,0,0,1,.426.426v1.42a.426.426,0,0,1-.426.426H2.7A.426.426,0,0,1,2.271,3.549Zm4.543,7.808A2.555,2.555,0,1,1,9.369,8.8,2.555,2.555,0,0,1,6.814,11.356Zm0,0" transform="translate(927.686 19.186)"/></g></svg>