<svg xmlns="http://www.w3.org/2000/svg" xmlns:xlink="http://www.w3.org/1999/xlink" width="18" height="18" viewBox="0 0 18 18">
  <defs>
    <clipPath id="clip-path">
      <rect id="Rectangle_447" data-name="Rectangle 447" width="18" height="18" transform="translate(-4819 1334)" fill="#939393" stroke="#707070" stroke-width="1"/>
    </clipPath>
  </defs>
  <g id="Mask_Group_209" data-name="Mask Group 209" transform="translate(4819 -1334)" clip-path="url(#clip-path)">
    <g id="camera" transform="translate(-4820.8 1333.1)">
      <path id="Path_286" data-name="Path 286" d="M10.8,8.1a2.7,2.7,0,1,0,2.7,2.7A2.736,2.736,0,0,0,10.8,8.1Z" fill="#f4511e"/>
      <path id="Path_287" data-name="Path 287" d="M18,4.5H15.673L13.236,2.064A.9.9,0,0,0,12.6,1.8H9a.9.9,0,0,0-.636.264L5.927,4.5H3.6A1.8,1.8,0,0,0,1.8,6.3v9.9A1.8,1.8,0,0,0,3.6,18H18a1.8,1.8,0,0,0,1.8-1.8V6.3A1.8,1.8,0,0,0,18,4.5ZM10.8,15.3a4.561,4.561,0,0,1-4.5-4.5,4.561,4.561,0,0,1,4.5-4.5,4.561,4.561,0,0,1,4.5,4.5A4.561,4.561,0,0,1,10.8,15.3Z" fill="#31353b"/>
    </g>
  </g>
</svg>
