<svg xmlns="http://www.w3.org/2000/svg" xmlns:xlink="http://www.w3.org/1999/xlink" width="16" height="16" viewBox="0 0 16 16"><defs><style>.a,.c{fill:#0381e3;}.a{stroke:#707070;}.b{clip-path:url(#a);}</style><clipPath id="a"><rect class="a" width="16" height="16" transform="translate(995 18)"/></clipPath></defs><g class="b" transform="translate(-995 -18)"><g transform="translate(995 18)"><path class="c" d="M8,6a2,2,0,1,0,2,2A2,2,0,0,0,8,6Z"/><path class="c" d="M15.459,6.64l-.883-.17a1.148,1.148,0,0,1-.709-1.808l.554-.756a.665.665,0,0,0-.067-.865l-1.2-1.2a.667.667,0,0,0-.845-.081l-.745.5a1.148,1.148,0,0,1-1.78-.777L9.646.565A.667.667,0,0,0,8.987,0H7.295A.667.667,0,0,0,6.64.541l-.219,1.14a1.149,1.149,0,0,1-1.773.734l-.961-.651a.667.667,0,0,0-.845.081l-1.2,1.2a.665.665,0,0,0-.067.865l.554.757a1.148,1.148,0,0,1-.71,1.807l-.882.17A.667.667,0,0,0,0,7.295V8.987a.667.667,0,0,0,.565.659l.925.143a1.149,1.149,0,0,1,.777,1.781l-.5.744a.666.666,0,0,0,.081.845l1.2,1.2a.666.666,0,0,0,.865.067l.757-.554a1.148,1.148,0,0,1,1.807.71l.17.882A.667.667,0,0,0,7.295,16H8.987a.667.667,0,0,0,.659-.565l.1-.651a1.15,1.15,0,0,1,1.817-.752l.531.389a.666.666,0,0,0,.865-.067l1.2-1.2a.666.666,0,0,0,.081-.845l-.5-.745a1.148,1.148,0,0,1,.777-1.78l.925-.143A.667.667,0,0,0,16,8.987V7.295A.667.667,0,0,0,15.459,6.64ZM8,11.333A3.333,3.333,0,1,1,11.333,8,3.337,3.337,0,0,1,8,11.333Z"/></g></g></svg>