<svg xmlns="http://www.w3.org/2000/svg" xmlns:xlink="http://www.w3.org/1999/xlink" width="18" height="18" viewBox="0 0 18 18">
  <defs>
    <clipPath id="clip-path">
      <rect id="Rectangle_423" data-name="Rectangle 423" width="18" height="18" transform="translate(-4819 1110)" fill="#fc573b" stroke="#707070" stroke-width="1"/>
    </clipPath>
  </defs>
  <g id="Mask_Group_201" data-name="Mask Group 201" transform="translate(4819 -1110)" clip-path="url(#clip-path)">
    <g id="list-text" transform="translate(-4819 1110)">
      <g id="Group_247" data-name="Group 247">
        <g id="Group_246" data-name="Group 246">
          <path id="Path_264" data-name="Path 264" d="M15.751,2.812H4.5a1.125,1.125,0,1,0,0,2.249H15.751a1.125,1.125,0,0,0,0-2.249Z" fill="#fc573b"/>
        </g>
      </g>
      <g id="Group_249" data-name="Group 249">
        <g id="Group_248" data-name="Group 248">
          <path id="Path_265" data-name="Path 265" d="M2.256,3.936a1.125,1.125,0,0,0-2.249,0,.957.957,0,0,0,0,.219,1.014,1.014,0,0,0,.062.214,1.305,1.305,0,0,0,.107.191,1.029,1.029,0,0,0,.141.174,1,1,0,0,0,.169.135.916.916,0,0,0,.191.107.928.928,0,0,0,.236.084.986.986,0,0,0,.219,0,1.125,1.125,0,0,0,.793-.326,1.029,1.029,0,0,0,.141-.174,1.305,1.305,0,0,0,.107-.191,1.044,1.044,0,0,0,.084-.214A.957.957,0,0,0,2.256,3.936Z" fill="#fc573b"/>
        </g>
      </g>
      <g id="Group_251" data-name="Group 251">
        <g id="Group_250" data-name="Group 250">
          <path id="Path_266" data-name="Path 266" d="M2.256,9a.961.961,0,0,0,0-.219.911.911,0,0,0-.084-.208,1.124,1.124,0,0,0-.107-.2A.81.81,0,0,0,1.924,8.2,1.125,1.125,0,0,0,.006,9a1.122,1.122,0,0,0,.186.624,1.08,1.08,0,0,0,.146.169.821.821,0,0,0,.169.141.912.912,0,0,0,.191.107.956.956,0,0,0,.214.062.933.933,0,0,0,.219.022.957.957,0,0,0,.219,0,.913.913,0,0,0,.208-.062.939.939,0,0,0,.2-.107.821.821,0,0,0,.169-.141.821.821,0,0,0,.141-.169.9.9,0,0,0,.107-.191.951.951,0,0,0,.084-.236A.93.93,0,0,0,2.256,9Z" fill="#fc573b"/>
        </g>
      </g>
      <g id="Group_253" data-name="Group 253">
        <g id="Group_252" data-name="Group 252">
          <path id="Path_267" data-name="Path 267" d="M2.256,14.058a.965.965,0,0,0,0-.219.957.957,0,0,0-.084-.214,1.305,1.305,0,0,0-.107-.191.821.821,0,0,0-.141-.169,1.125,1.125,0,0,0-1.586,0,.821.821,0,0,0-.141.169,1.305,1.305,0,0,0-.107.191.922.922,0,0,0-.062.214.966.966,0,0,0-.022.219,1.125,1.125,0,0,0,.332.793.821.821,0,0,0,.169.141A.912.912,0,0,0,.7,15.1a.956.956,0,0,0,.214.062.933.933,0,0,0,.219.022.957.957,0,0,0,.219,0,.913.913,0,0,0,.208-.062.939.939,0,0,0,.2-.107.821.821,0,0,0,.169-.141.821.821,0,0,0,.141-.169.9.9,0,0,0,.107-.191.955.955,0,0,0,.084-.236A.93.93,0,0,0,2.256,14.058Z" fill="#fc573b"/>
        </g>
      </g>
      <g id="Group_255" data-name="Group 255">
        <g id="Group_254" data-name="Group 254">
          <path id="Path_268" data-name="Path 268" d="M16.875,7.872H4.5a1.125,1.125,0,1,0,0,2.249H16.875a1.125,1.125,0,0,0,0-2.249Z" fill="#fc573b"/>
        </g>
      </g>
      <g id="Group_257" data-name="Group 257">
        <g id="Group_256" data-name="Group 256">
          <path id="Path_269" data-name="Path 269" d="M11.815,12.933H4.5a1.125,1.125,0,1,0,0,2.249h7.31a1.125,1.125,0,1,0,0-2.249Z" fill="#fc573b"/>
        </g>
      </g>
    </g>
  </g>
</svg>
