<svg xmlns="http://www.w3.org/2000/svg" xmlns:xlink="http://www.w3.org/1999/xlink" width="16" height="16" viewBox="0 0 16 16">
  <defs>
    <clipPath id="clip-path">
      <rect id="Rectangle_218" data-name="Rectangle 218" width="16" height="16" transform="translate(837 18)" fill="#0381e3" stroke="#707070" stroke-width="1"/>
    </clipPath>
  </defs>
  <g id="Mask_Group_84" data-name="Mask Group 84" transform="translate(-837 -18)" clip-path="url(#clip-path)">
    <path id="table-grid_2_" data-name="table-grid (2)" d="M13.948,1.636a1.329,1.329,0,0,0-.975-.405H1.38a1.329,1.329,0,0,0-.975.405A1.329,1.329,0,0,0,0,2.611V12a1.329,1.329,0,0,0,.405.975,1.329,1.329,0,0,0,.975.405H12.973A1.384,1.384,0,0,0,14.353,12V2.611A1.329,1.329,0,0,0,13.948,1.636ZM4.416,12a.266.266,0,0,1-.276.276H1.38A.265.265,0,0,1,1.1,12V10.339a.266.266,0,0,1,.276-.276H4.14a.266.266,0,0,1,.276.276V12Zm0-3.312a.266.266,0,0,1-.276.276H1.38A.266.266,0,0,1,1.1,8.683V7.027a.265.265,0,0,1,.276-.276H4.14a.266.266,0,0,1,.276.276V8.683Zm0-3.312a.266.266,0,0,1-.276.276H1.38A.266.266,0,0,1,1.1,5.371V3.715a.266.266,0,0,1,.276-.276H4.14a.266.266,0,0,1,.276.276V5.371ZM8.833,12a.265.265,0,0,1-.276.276H5.8A.265.265,0,0,1,5.52,12V10.339a.266.266,0,0,1,.276-.276h2.76a.266.266,0,0,1,.276.276V12h0Zm0-3.312a.265.265,0,0,1-.276.276H5.8a.266.266,0,0,1-.276-.276V7.027A.265.265,0,0,1,5.8,6.751h2.76a.265.265,0,0,1,.276.276V8.683Zm0-3.312a.265.265,0,0,1-.276.276H5.8a.266.266,0,0,1-.276-.276V3.715A.266.266,0,0,1,5.8,3.439h2.76a.265.265,0,0,1,.276.276V5.371ZM13.249,12a.265.265,0,0,1-.276.276h-2.76A.265.265,0,0,1,9.937,12V10.339a.266.266,0,0,1,.276-.276h2.76a.266.266,0,0,1,.276.276Zm0-3.312a.265.265,0,0,1-.276.276h-2.76a.265.265,0,0,1-.276-.276V7.027a.265.265,0,0,1,.276-.276h2.76a.265.265,0,0,1,.276.276Zm0-3.312a.265.265,0,0,1-.276.276h-2.76a.265.265,0,0,1-.276-.276V3.715a.265.265,0,0,1,.276-.276h2.76a.265.265,0,0,1,.276.276Z" transform="translate(837.823 18.697)" fill="#0381e3"/>
  </g>
</svg>
