<svg xmlns="http://www.w3.org/2000/svg" xmlns:xlink="http://www.w3.org/1999/xlink" width="18" height="18" viewBox="0 0 18 18">
  <defs>
    <clipPath id="clip-path">
      <rect id="Rectangle_114" data-name="Rectangle 114" width="18" height="18" transform="translate(18 507.5)" fill="#00c06d" stroke="#707070" stroke-width="1"/>
    </clipPath>
  </defs>
  <g id="Mask_Group_45" data-name="Mask Group 45" transform="translate(-18 -507.5)" clip-path="url(#clip-path)">
    <path id="excel_1_" data-name="excel (1)" d="M15.6,1.273H.743A.743.743,0,0,0,0,2.016V13.9a.743.743,0,0,0,.743.743H15.6a.743.743,0,0,0,.743-.743V2.016A.743.743,0,0,0,15.6,1.273ZM7.431,5.731V8.7H1.486V5.731Zm1.486,0h5.945V8.7H8.917ZM1.486,10.19H7.431v2.972H1.486Zm7.431,2.972V10.19h5.945v2.972Z" transform="translate(18.826 508.54)" fill="#00c06d"/>
  </g>
</svg>
