<svg xmlns="http://www.w3.org/2000/svg" xmlns:xlink="http://www.w3.org/1999/xlink" width="81.875" height="49.875" viewBox="0 0 81.875 49.875"><defs><style>.a,.c{fill:#fff;}.a{stroke:#707070;}.b,.d{opacity:0.25;}.b{clip-path:url(#a);}.d{clip-path:url(#b);}</style><clipPath id="a"><rect class="a" width="28" height="28" transform="translate(-2091.307 1543.693)"/></clipPath><clipPath id="b"><rect class="a" width="32" height="32" transform="translate(3749.778 8363.278)"/></clipPath></defs><g transform="translate(-993.876 -164.875)"><g class="b" transform="translate(2033.155 -2203.655) rotate(-30)"><g transform="translate(-2090.191 1545.883)"><path class="c" d="M22.546.667H3.221A3.225,3.225,0,0,0,0,3.887V21.065a3.225,3.225,0,0,0,3.221,3.221H22.546a3.225,3.225,0,0,0,3.221-3.221V3.887A3.225,3.225,0,0,0,22.546.667Zm0,21.472H3.221a1.075,1.075,0,0,1-1.074-1.074V6.035H23.619v15.03A1.075,1.075,0,0,1,22.546,22.139Z" transform="translate(0 -0.667)"/><path class="c" d="M5.074,15.256a1.074,1.074,0,0,1-.759-1.833l2.462-2.462L4.315,8.5A1.073,1.073,0,0,1,5.833,6.981L9.054,10.2a1.072,1.072,0,0,1,0,1.518L5.833,14.941a1.071,1.071,0,0,1-.759.315Z" transform="translate(2.442 2.996)"/><path class="c" d="M13.368,12.814H9.074a1.074,1.074,0,0,1,0-2.147h4.294a1.074,1.074,0,0,1,0,2.147Z" transform="translate(4.883 5.437)"/></g></g><g class="d" transform="matrix(0.875, 0.485, -0.485, 0.875, 1822.731, -8961.367)"><path class="c" d="M12.068,19.917a1.406,1.406,0,1,0,1.406,1.406A1.406,1.406,0,0,0,12.068,19.917ZM2.224,18.511A1.406,1.406,0,0,0,.818,19.917v2.812a1.406,1.406,0,0,0,2.812,0V19.917A1.406,1.406,0,0,0,2.224,18.511Zm28.124,0a1.406,1.406,0,0,0-1.406,1.406v2.812a1.406,1.406,0,0,0,2.812,0V19.917A1.406,1.406,0,0,0,30.348,18.511ZM23.317,8.667H17.693v-1.8a2.812,2.812,0,1,0-2.812,0v1.8H9.255a4.219,4.219,0,0,0-4.219,4.219V25.542A4.219,4.219,0,0,0,9.255,29.76H23.317a4.219,4.219,0,0,0,4.219-4.219V12.886A4.219,4.219,0,0,0,23.317,8.667ZM18.705,11.48h0Zm6.019,14.062a1.406,1.406,0,0,1-1.406,1.406H9.255a1.406,1.406,0,0,1-1.406-1.406V12.886A1.406,1.406,0,0,1,9.255,11.48h1.716c1.255,5.2,9.375,5.2,10.631,0h1.716a1.406,1.406,0,0,1,1.406,1.406Zm-4.219-5.625a1.406,1.406,0,1,0,1.406,1.406A1.406,1.406,0,0,0,20.505,19.917Z" transform="translate(3749.492 8363.579)"/></g></g></svg>