<svg xmlns="http://www.w3.org/2000/svg" xmlns:xlink="http://www.w3.org/1999/xlink" width="16" height="16" viewBox="0 0 16 16">
  <defs>
    <clipPath id="clip-path">
      <rect id="Rectangle_126" data-name="Rectangle 126" width="16" height="16" transform="translate(509 251.5)" fill="#0381e3" stroke="#707070" stroke-width="1"/>
    </clipPath>
  </defs>
  <g id="Mask_Group_77" data-name="Mask Group 77" transform="translate(-509 -251.5)" clip-path="url(#clip-path)">
    <path id="flow-merge" d="M12.6,11.347V9.866a2.8,2.8,0,0,0-2.8-2.8,1.2,1.2,0,0,1-1.2-1.2V4.653a2.4,2.4,0,1,0-1.6,0V5.866a1.2,1.2,0,0,1-1.2,1.2A2.8,2.8,0,0,0,3,9.866v1.481a2.4,2.4,0,1,0,1.6,0V9.866a1.2,1.2,0,0,1,1.2-1.2,2.789,2.789,0,0,0,2-.846,2.789,2.789,0,0,0,2,.846,1.2,1.2,0,0,1,1.2,1.2v1.481a2.4,2.4,0,1,0,1.6,0ZM3.8,14.4a.8.8,0,1,1,.8-.8A.8.8,0,0,1,3.8,14.4Zm4-12.8a.8.8,0,1,1-.8.8A.8.8,0,0,1,7.8,1.6Zm4,12.8a.8.8,0,1,1,.8-.8A.8.8,0,0,1,11.8,14.4Z" transform="translate(509.2 251.5)" fill="#0381e3"/>
  </g>
</svg>
