<svg xmlns="http://www.w3.org/2000/svg" xmlns:xlink="http://www.w3.org/1999/xlink" width="18" height="18" viewBox="0 0 18 18">
  <defs>
    <clipPath id="clip-path">
      <rect id="Rectangle_113" data-name="Rectangle 113" width="18" height="18" transform="translate(18 967)" fill="#50abf1" stroke="#707070" stroke-width="1"/>
    </clipPath>
  </defs>
  <g id="Mask_Group_51" data-name="Mask Group 51" transform="translate(-18 -967)" clip-path="url(#clip-path)">
    <g id="twitter-black" transform="translate(18 968.5)">
      <g id="Group_43" data-name="Group 43">
        <path id="Path_106" data-name="Path 106" d="M105.5,49.609a7.209,7.209,0,0,1-2.121.6A3.779,3.779,0,0,0,105,48.111a7.282,7.282,0,0,1-2.347.918,3.641,3.641,0,0,0-2.7-1.2A3.74,3.74,0,0,0,96.27,51.62a3.862,3.862,0,0,0,.1.862,10.4,10.4,0,0,1-7.612-3.958,3.856,3.856,0,0,0-.5,1.906A3.812,3.812,0,0,0,89.9,53.582a3.626,3.626,0,0,1-1.674-.472v.046a3.765,3.765,0,0,0,2.964,3.713,3.521,3.521,0,0,1-.973.133,3.6,3.6,0,0,1-.7-.067,3.707,3.707,0,0,0,3.45,2.628,7.292,7.292,0,0,1-4.586,1.622,7.423,7.423,0,0,1-.881-.052,10.283,10.283,0,0,0,5.661,1.7c6.793,0,10.507-5.769,10.507-10.774,0-.165,0-.329-.01-.491a7.577,7.577,0,0,0,1.842-1.96" transform="translate(-87.5 -47.833)" fill="#50abf1" fill-rule="evenodd"/>
      </g>
    </g>
  </g>
</svg>
