<svg xmlns="http://www.w3.org/2000/svg" xmlns:xlink="http://www.w3.org/1999/xlink" width="18" height="18" viewBox="0 0 18 18">
  <defs>
    <clipPath id="clip-path">
      <rect id="Rectangle_451" data-name="Rectangle 451" width="18" height="18" transform="translate(5828 4124)" fill="#9b066a" stroke="#707070" stroke-width="1"/>
    </clipPath>
  </defs>
  <g id="Mask_Group_207" data-name="Mask Group 207" transform="translate(-5828 -4124)" clip-path="url(#clip-path)">
    <g id="Group_262" data-name="Group 262" transform="translate(0.127 0.131)">
      <path id="Subtraction_14" data-name="Subtraction 14" d="M15.785,9.492H1.582A1.584,1.584,0,0,1,0,7.91V1.582A1.583,1.583,0,0,1,1.582,0h14.2a1.583,1.583,0,0,1,1.582,1.582V7.91A1.584,1.584,0,0,1,15.785,9.492ZM12.663,2.454v4.9h3.476V6.52H13.66V2.454ZM10.716,3.472h0v3.88h.927V2.413h-1.5L9.264,5.782l-.9-3.369H6.875V7.352H7.8V3.464l.978,3.888h.96ZM4.079,5.643h0L5.173,7.352h1.2L4.688,4.811l1.536-2.4H5.07L4.1,4,3.108,2.413H1.943L3.472,4.774,1.785,7.352h1.2l1.1-1.707Z" transform="translate(5828.189 4128.967)" fill="#9b066a"/>
      <path id="Path_282" data-name="Path 282" d="M15.047,4.043a2.632,2.632,0,0,0-.563-.91L12.293.823A2.648,2.648,0,0,0,10.38,0H3.359A1.584,1.584,0,0,0,1.777,1.582V4.043Z" transform="translate(5828.381 4123.869)" fill="#9b066a"/>
      <path id="Path_283" data-name="Path 283" d="M1.777,12.168v.773a1.584,1.584,0,0,0,1.582,1.582H13.625a1.584,1.584,0,0,0,1.582-1.582v-.773Z" transform="translate(5828.381 4127.345)" fill="#9b066a"/>
    </g>
  </g>
</svg>
